<svg xmlns="http://www.w3.org/2000/svg" viewBox="0 0 500 500"><g id="freepik--background-complete--inject-3"><rect y="382.4" width="500" height="0.25" style="fill:#ebebeb"></rect><rect x="416.78" y="398.49" width="33.12" height="0.25" style="fill:#ebebeb"></rect><rect x="322.53" y="401.21" width="8.69" height="0.25" style="fill:#ebebeb"></rect><rect x="396.59" y="389.21" width="19.19" height="0.25" style="fill:#ebebeb"></rect><rect x="52.46" y="390.89" width="43.19" height="0.25" style="fill:#ebebeb"></rect><rect x="104.56" y="390.89" width="6.33" height="0.25" style="fill:#ebebeb"></rect><rect x="131.47" y="395.11" width="93.68" height="0.25" style="fill:#ebebeb"></rect><path d="M237,337.8H43.91a5.71,5.71,0,0,1-5.7-5.71V60.66A5.71,5.71,0,0,1,43.91,55H237a5.71,5.71,0,0,1,5.71,5.71V332.09A5.71,5.71,0,0,1,237,337.8ZM43.91,55.2a5.46,5.46,0,0,0-5.45,5.46V332.09a5.46,5.46,0,0,0,5.45,5.46H237a5.47,5.47,0,0,0,5.46-5.46V60.66A5.47,5.47,0,0,0,237,55.2Z" style="fill:#ebebeb"></path><path d="M453.31,337.8H260.21a5.72,5.72,0,0,1-5.71-5.71V60.66A5.72,5.72,0,0,1,260.21,55h193.1A5.71,5.71,0,0,1,459,60.66V332.09A5.71,5.71,0,0,1,453.31,337.8ZM260.21,55.2a5.47,5.47,0,0,0-5.46,5.46V332.09a5.47,5.47,0,0,0,5.46,5.46h193.1a5.47,5.47,0,0,0,5.46-5.46V60.66a5.47,5.47,0,0,0-5.46-5.46Z" style="fill:#ebebeb"></path><rect x="141.73" y="137.66" width="213.68" height="142.99" style="fill:#e0e0e0"></rect><rect x="143.54" y="139.47" width="210.07" height="139.37" style="fill:#f5f5f5"></rect><polygon points="350.97 246.58 350.97 230.59 347.74 230.59 347.74 226.5 340.25 226.5 340.25 212.55 336.15 212.55 336.15 202.67 331.11 202.67 331.11 188.3 329.31 188.3 329.31 202.67 324.27 202.67 324.27 212.55 320.17 212.55 320.17 226.5 312.68 226.5 312.68 230.59 309.45 230.59 309.45 246.58 305.61 246.58 305.61 226.5 298.13 226.5 298.13 183.28 295.74 183.28 295.74 178.51 279.74 178.51 279.74 183.28 276.34 183.28 276.34 214.59 262.73 214.59 262.73 217.65 257.62 217.65 257.62 220.04 262.73 220.04 262.73 232.29 248.44 232.29 248.44 191.44 245.37 191.44 245.37 182.77 238.73 182.77 238.73 151.96 236.87 151.96 236.87 182.77 232.1 182.77 232.1 191.44 204.17 191.44 204.17 188.59 202.46 188.59 202.46 207.99 200.08 207.99 200.08 208.33 198.65 208.33 198.65 227.73 196.27 227.73 196.27 233 191.23 233 191.23 218.71 189.43 218.71 189.43 252.75 187.42 252.75 187.42 238.45 185.61 238.45 185.61 260.75 184.51 260.75 184.51 244.75 181.27 244.75 181.27 240.66 173.79 240.66 173.79 226.71 169.69 226.71 169.69 216.83 164.65 216.83 164.65 202.46 162.85 202.46 162.85 216.83 157.81 216.83 157.81 226.71 153.71 226.71 153.71 240.66 146.22 240.66 146.22 244.75 143.54 244.75 143.54 279.67 252.88 279.67 252.88 279.69 254.81 279.69 254.81 279.67 255.94 279.67 255.94 279.69 257.87 279.69 257.87 279.67 265.36 279.67 265.36 280.65 267.29 280.65 267.29 279.67 268.42 279.67 268.42 280.65 270.34 280.65 270.34 279.67 271.48 279.67 271.48 280.65 273.41 280.65 273.41 279.67 353.6 279.67 353.6 246.58 350.97 246.58" style="fill:#e6e6e6"></polygon><rect x="219.75" y="193.35" width="1.93" height="1.93" style="fill:#f0f0f0"></rect><rect x="219.75" y="196.59" width="1.93" height="1.93" style="fill:#f0f0f0"></rect><rect x="219.75" y="209.52" width="1.93" height="1.93" style="fill:#f0f0f0"></rect><rect x="219.75" y="212.75" width="1.93" height="1.93" style="fill:#f0f0f0"></rect><rect x="219.75" y="215.99" width="1.93" height="1.93" style="fill:#f0f0f0"></rect><rect x="219.75" y="225.69" width="1.93" height="1.93" style="fill:#f0f0f0"></rect><rect x="219.75" y="228.92" width="1.93" height="1.93" style="fill:#f0f0f0"></rect><rect x="222.81" y="206.29" width="1.93" height="1.93" style="fill:#f0f0f0"></rect><rect x="222.81" y="209.52" width="1.93" height="1.93" style="fill:#f0f0f0"></rect><rect x="222.81" y="212.75" width="1.93" height="1.93" style="fill:#f0f0f0"></rect><rect x="222.81" y="215.99" width="1.93" height="1.93" style="fill:#f0f0f0"></rect><rect x="222.81" y="219.22" width="1.93" height="1.93" style="fill:#f0f0f0"></rect><rect x="222.81" y="225.69" width="1.93" height="1.93" style="fill:#f0f0f0"></rect><rect x="222.81" y="228.92" width="1.93" height="1.93" style="fill:#f0f0f0"></rect><rect x="225.87" y="193.35" width="1.93" height="1.93" style="fill:#f0f0f0"></rect><rect x="225.87" y="196.59" width="1.93" height="1.93" style="fill:#f0f0f0"></rect><rect x="225.87" y="199.82" width="1.93" height="1.93" style="fill:#f0f0f0"></rect><rect x="225.87" y="203.05" width="1.93" height="1.93" style="fill:#f0f0f0"></rect><rect x="225.87" y="206.29" width="1.93" height="1.93" style="fill:#f0f0f0"></rect><rect x="225.87" y="209.52" width="1.93" height="1.93" style="fill:#f0f0f0"></rect><rect x="225.87" y="212.75" width="1.93" height="1.93" style="fill:#f0f0f0"></rect><rect x="225.87" y="215.99" width="1.93" height="1.93" style="fill:#f0f0f0"></rect><rect x="225.87" y="219.22" width="1.93" height="1.93" style="fill:#f0f0f0"></rect><rect x="225.87" y="222.45" width="1.93" height="1.93" style="fill:#f0f0f0"></rect><rect x="225.87" y="228.92" width="1.93" height="1.93" style="fill:#f0f0f0"></rect><rect x="228.94" y="193.35" width="1.93" height="1.93" style="fill:#f0f0f0"></rect><rect x="228.94" y="196.59" width="1.93" height="1.93" style="fill:#f0f0f0"></rect><rect x="228.94" y="199.82" width="1.93" height="1.93" style="fill:#f0f0f0"></rect><rect x="228.94" y="203.05" width="1.93" height="1.93" style="fill:#f0f0f0"></rect><rect x="228.94" y="206.29" width="1.93" height="1.93" style="fill:#f0f0f0"></rect><rect x="228.94" y="209.52" width="1.93" height="1.93" style="fill:#f0f0f0"></rect><rect x="228.94" y="212.75" width="1.93" height="1.93" style="fill:#f0f0f0"></rect><rect x="228.94" y="241.85" width="1.93" height="1.93" style="fill:#f0f0f0"></rect><rect x="232" y="193.35" width="1.93" height="1.93" style="fill:#f0f0f0"></rect><rect x="232" y="196.59" width="1.93" height="1.93" style="fill:#f0f0f0"></rect><rect x="232" y="199.82" width="1.93" height="1.93" style="fill:#f0f0f0"></rect><rect x="232" y="203.05" width="1.93" height="1.93" style="fill:#f0f0f0"></rect><rect x="232" y="206.29" width="1.93" height="1.93" style="fill:#f0f0f0"></rect><rect x="232" y="209.52" width="1.93" height="1.93" style="fill:#f0f0f0"></rect><rect x="232" y="212.75" width="1.93" height="1.93" style="fill:#f0f0f0"></rect><rect x="232" y="215.99" width="1.93" height="1.93" style="fill:#f0f0f0"></rect><rect x="232" y="235.39" width="1.93" height="1.93" style="fill:#f0f0f0"></rect><rect x="232" y="238.62" width="1.93" height="1.93" style="fill:#f0f0f0"></rect><rect x="232" y="241.85" width="1.93" height="1.93" style="fill:#f0f0f0"></rect><rect x="232" y="245.09" width="1.93" height="1.93" style="fill:#f0f0f0"></rect><rect x="232" y="258.02" width="1.93" height="1.93" style="fill:#f0f0f0"></rect><rect x="235.06" y="193.35" width="1.93" height="1.93" style="fill:#f0f0f0"></rect><rect x="235.06" y="196.59" width="1.93" height="1.93" style="fill:#f0f0f0"></rect><rect x="235.06" y="199.82" width="1.93" height="1.93" style="fill:#f0f0f0"></rect><rect x="235.06" y="203.05" width="1.93" height="1.93" style="fill:#f0f0f0"></rect><rect x="235.06" y="206.29" width="1.93" height="1.93" style="fill:#f0f0f0"></rect><rect x="235.06" y="209.52" width="1.93" height="1.93" style="fill:#f0f0f0"></rect><rect x="235.06" y="212.75" width="1.93" height="1.93" style="fill:#f0f0f0"></rect><rect x="235.06" y="215.99" width="1.93" height="1.93" style="fill:#f0f0f0"></rect><rect x="235.06" y="219.22" width="1.93" height="1.93" style="fill:#f0f0f0"></rect><rect x="235.06" y="222.45" width="1.93" height="1.93" style="fill:#f0f0f0"></rect><rect x="235.06" y="232.15" width="1.93" height="1.93" style="fill:#f0f0f0"></rect><rect x="235.06" y="235.39" width="1.93" height="1.93" style="fill:#f0f0f0"></rect><rect x="235.06" y="238.62" width="1.93" height="1.93" style="fill:#f0f0f0"></rect><rect x="235.06" y="241.85" width="1.93" height="1.93" style="fill:#f0f0f0"></rect><rect x="235.06" y="245.09" width="1.93" height="1.93" style="fill:#f0f0f0"></rect><rect x="235.06" y="258.02" width="1.93" height="1.93" style="fill:#f0f0f0"></rect><rect x="238.13" y="193.35" width="1.93" height="1.93" style="fill:#f0f0f0"></rect><rect x="238.13" y="196.59" width="1.93" height="1.93" style="fill:#f0f0f0"></rect><rect x="238.13" y="199.82" width="1.93" height="1.93" style="fill:#f0f0f0"></rect><rect x="238.13" y="203.05" width="1.93" height="1.93" style="fill:#f0f0f0"></rect><rect x="238.13" y="206.29" width="1.93" height="1.93" style="fill:#f0f0f0"></rect><rect x="238.13" y="209.52" width="1.93" height="1.93" style="fill:#f0f0f0"></rect><rect x="238.13" y="212.75" width="1.93" height="1.93" style="fill:#f0f0f0"></rect><rect x="238.13" y="215.99" width="1.93" height="1.93" style="fill:#f0f0f0"></rect><rect x="238.13" y="219.22" width="1.93" height="1.93" style="fill:#f0f0f0"></rect><rect x="238.13" y="222.45" width="1.93" height="1.93" style="fill:#f0f0f0"></rect><rect x="238.13" y="225.69" width="1.93" height="1.93" style="fill:#f0f0f0"></rect><rect x="238.13" y="228.92" width="1.93" height="1.93" style="fill:#f0f0f0"></rect><rect x="238.13" y="232.15" width="1.93" height="1.93" style="fill:#f0f0f0"></rect><rect x="238.13" y="235.39" width="1.93" height="1.93" style="fill:#f0f0f0"></rect><rect x="238.13" y="238.62" width="1.93" height="1.93" style="fill:#f0f0f0"></rect><rect x="238.13" y="241.85" width="1.93" height="1.93" style="fill:#f0f0f0"></rect><rect x="238.13" y="245.09" width="1.93" height="1.93" style="fill:#f0f0f0"></rect><rect x="238.13" y="248.32" width="1.93" height="1.93" style="fill:#f0f0f0"></rect><rect x="241.19" y="193.35" width="1.93" height="1.93" style="fill:#f0f0f0"></rect><rect x="241.19" y="196.59" width="1.93" height="1.93" style="fill:#f0f0f0"></rect><rect x="241.19" y="199.82" width="1.93" height="1.93" style="fill:#f0f0f0"></rect><rect x="241.19" y="203.05" width="1.93" height="1.93" style="fill:#f0f0f0"></rect><rect x="241.19" y="206.29" width="1.93" height="1.93" style="fill:#f0f0f0"></rect><rect x="241.19" y="209.52" width="1.93" height="1.93" style="fill:#f0f0f0"></rect><rect x="241.19" y="212.75" width="1.93" height="1.93" style="fill:#f0f0f0"></rect><rect x="241.19" y="215.99" width="1.93" height="1.93" style="fill:#f0f0f0"></rect><rect x="241.19" y="219.22" width="1.93" height="1.93" style="fill:#f0f0f0"></rect><rect x="241.19" y="222.45" width="1.93" height="1.93" style="fill:#f0f0f0"></rect><rect x="241.19" y="232.15" width="1.93" height="1.93" style="fill:#f0f0f0"></rect><rect x="241.19" y="235.39" width="1.93" height="1.93" style="fill:#f0f0f0"></rect><rect x="241.19" y="238.62" width="1.93" height="1.93" style="fill:#f0f0f0"></rect><rect x="241.19" y="241.85" width="1.93" height="1.93" style="fill:#f0f0f0"></rect><rect x="244.25" y="193.35" width="1.93" height="1.93" style="fill:#f0f0f0"></rect><rect x="244.25" y="196.59" width="1.93" height="1.93" style="fill:#f0f0f0"></rect><rect x="244.25" y="199.82" width="1.93" height="1.93" style="fill:#f0f0f0"></rect><rect x="244.25" y="203.05" width="1.93" height="1.93" style="fill:#f0f0f0"></rect><rect x="244.25" y="206.29" width="1.93" height="1.93" style="fill:#f0f0f0"></rect><rect x="244.25" y="209.52" width="1.93" height="1.93" style="fill:#f0f0f0"></rect><rect x="244.25" y="212.75" width="1.93" height="1.93" style="fill:#f0f0f0"></rect><rect x="244.25" y="215.99" width="1.93" height="1.93" style="fill:#f0f0f0"></rect><rect x="244.25" y="219.22" width="1.93" height="1.93" style="fill:#f0f0f0"></rect><rect x="244.25" y="222.45" width="1.93" height="1.93" style="fill:#f0f0f0"></rect><rect x="244.25" y="232.15" width="1.93" height="1.93" style="fill:#f0f0f0"></rect><rect x="244.25" y="235.39" width="1.93" height="1.93" style="fill:#f0f0f0"></rect><rect x="244.25" y="238.62" width="1.93" height="1.93" style="fill:#f0f0f0"></rect><rect x="278.74" y="184.96" width="1.93" height="1.93" style="fill:#f0f0f0"></rect><rect x="278.74" y="188.19" width="1.93" height="1.93" style="fill:#f0f0f0"></rect><rect x="278.74" y="191.42" width="1.93" height="1.93" style="fill:#f0f0f0"></rect><rect x="278.74" y="194.66" width="1.93" height="1.93" style="fill:#f0f0f0"></rect><rect x="278.74" y="197.89" width="1.93" height="1.93" style="fill:#f0f0f0"></rect><rect x="278.74" y="201.12" width="1.93" height="1.93" style="fill:#f0f0f0"></rect><rect x="278.74" y="204.36" width="1.93" height="1.93" style="fill:#f0f0f0"></rect><rect x="278.74" y="207.59" width="1.93" height="1.93" style="fill:#f0f0f0"></rect><rect x="278.74" y="217.29" width="1.93" height="1.93" style="fill:#f0f0f0"></rect><rect x="278.74" y="220.52" width="1.93" height="1.93" style="fill:#f0f0f0"></rect><rect x="281.81" y="184.96" width="1.93" height="1.93" style="fill:#f0f0f0"></rect><rect x="281.81" y="188.19" width="1.93" height="1.93" style="fill:#f0f0f0"></rect><rect x="281.81" y="191.42" width="1.93" height="1.93" style="fill:#f0f0f0"></rect><rect x="281.81" y="194.66" width="1.93" height="1.93" style="fill:#f0f0f0"></rect><rect x="281.81" y="197.89" width="1.93" height="1.93" style="fill:#f0f0f0"></rect><rect x="281.81" y="201.12" width="1.93" height="1.93" style="fill:#f0f0f0"></rect><rect x="281.81" y="204.36" width="1.93" height="1.93" style="fill:#f0f0f0"></rect><rect x="281.81" y="207.59" width="1.93" height="1.93" style="fill:#f0f0f0"></rect><rect x="281.81" y="220.52" width="1.93" height="1.93" style="fill:#f0f0f0"></rect><rect x="284.87" y="184.96" width="1.93" height="1.93" style="fill:#f0f0f0"></rect><rect x="284.87" y="188.19" width="1.93" height="1.93" style="fill:#f0f0f0"></rect><rect x="284.87" y="191.42" width="1.93" height="1.93" style="fill:#f0f0f0"></rect><rect x="284.87" y="194.66" width="1.93" height="1.93" style="fill:#f0f0f0"></rect><rect x="284.87" y="197.89" width="1.93" height="1.93" style="fill:#f0f0f0"></rect><rect x="284.87" y="201.12" width="1.93" height="1.93" style="fill:#f0f0f0"></rect><rect x="284.87" y="204.36" width="1.93" height="1.93" style="fill:#f0f0f0"></rect><rect x="284.87" y="207.59" width="1.93" height="1.93" style="fill:#f0f0f0"></rect><rect x="287.93" y="184.96" width="1.93" height="1.93" style="fill:#f0f0f0"></rect><rect x="287.93" y="188.19" width="1.93" height="1.93" style="fill:#f0f0f0"></rect><rect x="287.93" y="191.42" width="1.93" height="1.93" style="fill:#f0f0f0"></rect><rect x="287.93" y="194.66" width="1.93" height="1.93" style="fill:#f0f0f0"></rect><rect x="287.93" y="197.89" width="1.93" height="1.93" style="fill:#f0f0f0"></rect><rect x="287.93" y="201.12" width="1.93" height="1.93" style="fill:#f0f0f0"></rect><rect x="287.93" y="207.59" width="1.93" height="1.93" style="fill:#f0f0f0"></rect><rect x="287.93" y="210.82" width="1.93" height="1.93" style="fill:#f0f0f0"></rect><rect x="287.93" y="220.52" width="1.93" height="1.93" style="fill:#f0f0f0"></rect><rect x="287.93" y="223.76" width="1.93" height="1.93" style="fill:#f0f0f0"></rect><rect x="287.93" y="226.99" width="1.93" height="1.93" style="fill:#f0f0f0"></rect><rect x="287.93" y="230.23" width="1.93" height="1.93" style="fill:#f0f0f0"></rect><rect x="287.93" y="233.46" width="1.93" height="1.93" style="fill:#f0f0f0"></rect><rect x="287.93" y="236.69" width="1.93" height="1.93" style="fill:#f0f0f0"></rect><rect x="287.93" y="239.93" width="1.93" height="1.93" style="fill:#f0f0f0"></rect><rect x="291" y="184.96" width="1.93" height="1.93" style="fill:#f0f0f0"></rect><rect x="291" y="188.19" width="1.93" height="1.93" style="fill:#f0f0f0"></rect><rect x="291" y="191.42" width="1.93" height="1.93" style="fill:#f0f0f0"></rect><rect x="291" y="194.66" width="1.93" height="1.93" style="fill:#f0f0f0"></rect><rect x="291" y="197.89" width="1.93" height="1.93" style="fill:#f0f0f0"></rect><rect x="291" y="201.12" width="1.93" height="1.93" style="fill:#f0f0f0"></rect><rect x="291" y="210.82" width="1.93" height="1.93" style="fill:#f0f0f0"></rect><rect x="291" y="214.06" width="1.93" height="1.93" style="fill:#f0f0f0"></rect><rect x="291" y="217.29" width="1.93" height="1.93" style="fill:#f0f0f0"></rect><rect x="291" y="220.52" width="1.93" height="1.93" style="fill:#f0f0f0"></rect><rect x="291" y="223.76" width="1.93" height="1.93" style="fill:#f0f0f0"></rect><rect x="291" y="226.99" width="1.93" height="1.93" style="fill:#f0f0f0"></rect><rect x="291" y="230.23" width="1.93" height="1.93" style="fill:#f0f0f0"></rect><rect x="291" y="233.46" width="1.93" height="1.93" style="fill:#f0f0f0"></rect><rect x="291" y="236.69" width="1.93" height="1.93" style="fill:#f0f0f0"></rect><rect x="291" y="239.93" width="1.93" height="1.93" style="fill:#f0f0f0"></rect><rect x="291" y="243.16" width="1.93" height="1.93" style="fill:#f0f0f0"></rect><rect x="291" y="249.63" width="1.93" height="1.93" style="fill:#f0f0f0"></rect><rect x="294.06" y="184.96" width="1.93" height="1.93" style="fill:#f0f0f0"></rect><rect x="294.06" y="188.19" width="1.93" height="1.93" style="fill:#f0f0f0"></rect><rect x="294.06" y="191.42" width="1.93" height="1.93" style="fill:#f0f0f0"></rect><rect x="294.06" y="194.66" width="1.93" height="1.93" style="fill:#f0f0f0"></rect><rect x="294.06" y="197.89" width="1.93" height="1.93" style="fill:#f0f0f0"></rect><rect x="294.06" y="201.12" width="1.93" height="1.93" style="fill:#f0f0f0"></rect><rect x="294.06" y="210.82" width="1.93" height="1.93" style="fill:#f0f0f0"></rect><rect x="294.06" y="214.06" width="1.93" height="1.93" style="fill:#f0f0f0"></rect><rect x="294.06" y="217.29" width="1.93" height="1.93" style="fill:#f0f0f0"></rect><rect x="294.06" y="220.52" width="1.93" height="1.93" style="fill:#f0f0f0"></rect><rect x="294.06" y="230.23" width="1.93" height="1.93" style="fill:#f0f0f0"></rect><rect x="294.06" y="233.46" width="1.93" height="1.93" style="fill:#f0f0f0"></rect><rect x="294.06" y="236.69" width="1.93" height="1.93" style="fill:#f0f0f0"></rect><rect x="294.06" y="239.93" width="1.93" height="1.93" style="fill:#f0f0f0"></rect><rect x="294.06" y="243.16" width="1.93" height="1.93" style="fill:#f0f0f0"></rect><rect x="294.06" y="249.63" width="1.93" height="1.93" style="fill:#f0f0f0"></rect><rect x="294.06" y="252.86" width="1.93" height="1.93" style="fill:#f0f0f0"></rect><rect x="321.86" y="215.02" width="1.93" height="1.93" style="fill:#f0f0f0"></rect><rect x="321.86" y="218.26" width="1.93" height="1.93" style="fill:#f0f0f0"></rect><rect x="321.86" y="221.49" width="1.93" height="1.93" style="fill:#f0f0f0"></rect><rect x="321.86" y="224.72" width="1.93" height="1.93" style="fill:#f0f0f0"></rect><rect x="321.86" y="227.96" width="1.93" height="1.93" style="fill:#f0f0f0"></rect><rect x="321.86" y="231.19" width="1.93" height="1.93" style="fill:#f0f0f0"></rect><rect x="321.86" y="234.42" width="1.93" height="1.93" style="fill:#f0f0f0"></rect><rect x="321.86" y="244.12" width="1.93" height="1.93" style="fill:#f0f0f0"></rect><rect x="321.86" y="247.36" width="1.93" height="1.93" style="fill:#f0f0f0"></rect><rect x="321.86" y="250.59" width="1.93" height="1.93" style="fill:#f0f0f0"></rect><rect x="324.92" y="215.02" width="1.93" height="1.93" style="fill:#f0f0f0"></rect><rect x="324.92" y="218.26" width="1.93" height="1.93" style="fill:#f0f0f0"></rect><rect x="324.92" y="221.49" width="1.93" height="1.93" style="fill:#f0f0f0"></rect><rect x="324.92" y="224.72" width="1.93" height="1.93" style="fill:#f0f0f0"></rect><rect x="324.92" y="227.96" width="1.93" height="1.93" style="fill:#f0f0f0"></rect><rect x="324.92" y="231.19" width="1.93" height="1.93" style="fill:#f0f0f0"></rect><rect x="324.92" y="234.42" width="1.93" height="1.93" style="fill:#f0f0f0"></rect><rect x="327.98" y="215.02" width="1.93" height="1.93" style="fill:#f0f0f0"></rect><rect x="327.98" y="218.26" width="1.93" height="1.93" style="fill:#f0f0f0"></rect><rect x="327.98" y="221.49" width="1.93" height="1.93" style="fill:#f0f0f0"></rect><rect x="327.98" y="224.72" width="1.93" height="1.93" style="fill:#f0f0f0"></rect><rect x="327.98" y="227.96" width="1.93" height="1.93" style="fill:#f0f0f0"></rect><rect x="327.98" y="231.19" width="1.93" height="1.93" style="fill:#f0f0f0"></rect><rect x="327.98" y="234.42" width="1.93" height="1.93" style="fill:#f0f0f0"></rect><rect x="331.04" y="215.02" width="1.93" height="1.93" style="fill:#f0f0f0"></rect><rect x="331.04" y="218.26" width="1.93" height="1.93" style="fill:#f0f0f0"></rect><rect x="331.04" y="221.49" width="1.93" height="1.93" style="fill:#f0f0f0"></rect><rect x="331.04" y="224.72" width="1.93" height="1.93" style="fill:#f0f0f0"></rect><rect x="331.04" y="227.96" width="1.93" height="1.93" style="fill:#f0f0f0"></rect><rect x="331.04" y="231.19" width="1.93" height="1.93" style="fill:#f0f0f0"></rect><rect x="331.04" y="234.42" width="1.93" height="1.93" style="fill:#f0f0f0"></rect><rect x="331.04" y="237.66" width="1.93" height="1.93" style="fill:#f0f0f0"></rect><rect x="331.04" y="240.89" width="1.93" height="1.93" style="fill:#f0f0f0"></rect><rect x="331.04" y="244.12" width="1.93" height="1.93" style="fill:#f0f0f0"></rect><rect x="331.04" y="247.36" width="1.93" height="1.93" style="fill:#f0f0f0"></rect><rect x="334.11" y="215.02" width="1.93" height="1.93" style="fill:#f0f0f0"></rect><rect x="334.11" y="218.26" width="1.93" height="1.93" style="fill:#f0f0f0"></rect><rect x="334.11" y="221.49" width="1.93" height="1.93" style="fill:#f0f0f0"></rect><rect x="334.11" y="224.72" width="1.93" height="1.93" style="fill:#f0f0f0"></rect><rect x="334.11" y="227.96" width="1.93" height="1.93" style="fill:#f0f0f0"></rect><rect x="334.11" y="231.19" width="1.93" height="1.93" style="fill:#f0f0f0"></rect><rect x="334.11" y="234.42" width="1.93" height="1.93" style="fill:#f0f0f0"></rect><rect x="334.11" y="237.66" width="1.93" height="1.93" style="fill:#f0f0f0"></rect><rect x="334.11" y="240.89" width="1.93" height="1.93" style="fill:#f0f0f0"></rect><rect x="334.11" y="244.12" width="1.93" height="1.93" style="fill:#f0f0f0"></rect><rect x="334.11" y="247.36" width="1.93" height="1.93" style="fill:#f0f0f0"></rect><rect x="334.11" y="250.59" width="1.93" height="1.93" style="fill:#f0f0f0"></rect><rect x="334.11" y="260.29" width="1.93" height="1.93" style="fill:#f0f0f0"></rect><rect x="334.11" y="263.52" width="1.93" height="1.93" style="fill:#f0f0f0"></rect><rect x="337.17" y="215.02" width="1.93" height="1.93" style="fill:#f0f0f0"></rect><rect x="337.17" y="218.26" width="1.93" height="1.93" style="fill:#f0f0f0"></rect><rect x="337.17" y="221.49" width="1.93" height="1.93" style="fill:#f0f0f0"></rect><rect x="337.17" y="231.19" width="1.93" height="1.93" style="fill:#f0f0f0"></rect><rect x="337.17" y="234.42" width="1.93" height="1.93" style="fill:#f0f0f0"></rect><rect x="337.17" y="237.66" width="1.93" height="1.93" style="fill:#f0f0f0"></rect><rect x="337.17" y="240.89" width="1.93" height="1.93" style="fill:#f0f0f0"></rect><rect x="337.17" y="244.12" width="1.93" height="1.93" style="fill:#f0f0f0"></rect><rect x="337.17" y="247.36" width="1.93" height="1.93" style="fill:#f0f0f0"></rect><rect x="337.17" y="250.59" width="1.93" height="1.93" style="fill:#f0f0f0"></rect><rect x="337.17" y="260.29" width="1.93" height="1.93" style="fill:#f0f0f0"></rect><rect x="337.17" y="263.52" width="1.93" height="1.93" style="fill:#f0f0f0"></rect><rect x="337.17" y="266.76" width="1.93" height="1.93" style="fill:#f0f0f0"></rect><rect x="159.51" y="219.22" width="1.93" height="1.93" style="fill:#f0f0f0"></rect><rect x="159.51" y="222.45" width="1.93" height="1.93" style="fill:#f0f0f0"></rect><rect x="159.51" y="225.69" width="1.93" height="1.93" style="fill:#f0f0f0"></rect><rect x="159.51" y="228.92" width="1.93" height="1.93" style="fill:#f0f0f0"></rect><rect x="159.51" y="232.15" width="1.93" height="1.93" style="fill:#f0f0f0"></rect><rect x="159.51" y="235.39" width="1.93" height="1.93" style="fill:#f0f0f0"></rect><rect x="159.51" y="238.62" width="1.93" height="1.93" style="fill:#f0f0f0"></rect><rect x="159.51" y="241.85" width="1.93" height="1.93" style="fill:#f0f0f0"></rect><rect x="159.51" y="245.09" width="1.93" height="1.93" style="fill:#f0f0f0"></rect><rect x="159.51" y="248.32" width="1.93" height="1.93" style="fill:#f0f0f0"></rect><rect x="159.51" y="251.55" width="1.93" height="1.93" style="fill:#f0f0f0"></rect><rect x="159.51" y="254.79" width="1.93" height="1.93" style="fill:#f0f0f0"></rect><rect x="159.51" y="258.02" width="1.93" height="1.93" style="fill:#f0f0f0"></rect><rect x="159.51" y="261.25" width="1.93" height="1.93" style="fill:#f0f0f0"></rect><rect x="159.51" y="264.49" width="1.93" height="1.93" style="fill:#f0f0f0"></rect><rect x="159.51" y="267.72" width="1.93" height="1.93" style="fill:#f0f0f0"></rect><rect x="159.51" y="270.95" width="1.93" height="1.93" style="fill:#f0f0f0"></rect><rect x="159.51" y="274.19" width="1.93" height="1.93" style="fill:#f0f0f0"></rect><rect x="159.51" y="277.42" width="1.93" height="1.93" style="fill:#f0f0f0"></rect><rect x="162.57" y="219.22" width="1.93" height="1.93" style="fill:#f0f0f0"></rect><rect x="162.57" y="222.45" width="1.93" height="1.93" style="fill:#f0f0f0"></rect><rect x="162.57" y="225.69" width="1.93" height="1.93" style="fill:#f0f0f0"></rect><rect x="162.57" y="228.92" width="1.93" height="1.93" style="fill:#f0f0f0"></rect><rect x="162.57" y="232.15" width="1.93" height="1.93" style="fill:#f0f0f0"></rect><rect x="162.57" y="235.39" width="1.93" height="1.93" style="fill:#f0f0f0"></rect><rect x="162.57" y="238.62" width="1.93" height="1.93" style="fill:#f0f0f0"></rect><rect x="162.57" y="241.85" width="1.93" height="1.93" style="fill:#f0f0f0"></rect><rect x="162.57" y="245.09" width="1.93" height="1.93" style="fill:#f0f0f0"></rect><rect x="162.57" y="248.32" width="1.93" height="1.93" style="fill:#f0f0f0"></rect><rect x="162.57" y="251.55" width="1.93" height="1.93" style="fill:#f0f0f0"></rect><rect x="162.57" y="254.79" width="1.93" height="1.93" style="fill:#f0f0f0"></rect><rect x="162.57" y="258.02" width="1.93" height="1.93" style="fill:#f0f0f0"></rect><rect x="162.57" y="261.25" width="1.93" height="1.93" style="fill:#f0f0f0"></rect><rect x="162.57" y="264.49" width="1.93" height="1.93" style="fill:#f0f0f0"></rect><rect x="162.57" y="267.72" width="1.93" height="1.93" style="fill:#f0f0f0"></rect><rect x="162.57" y="270.95" width="1.93" height="1.93" style="fill:#f0f0f0"></rect><rect x="162.57" y="274.19" width="1.93" height="1.93" style="fill:#f0f0f0"></rect><rect x="165.63" y="219.22" width="1.93" height="1.93" style="fill:#f0f0f0"></rect><rect x="165.63" y="222.45" width="1.93" height="1.93" style="fill:#f0f0f0"></rect><rect x="165.63" y="225.69" width="1.93" height="1.93" style="fill:#f0f0f0"></rect><rect x="165.63" y="228.92" width="1.93" height="1.93" style="fill:#f0f0f0"></rect><rect x="165.63" y="232.15" width="1.93" height="1.93" style="fill:#f0f0f0"></rect><rect x="165.63" y="235.39" width="1.93" height="1.93" style="fill:#f0f0f0"></rect><rect x="165.63" y="238.62" width="1.93" height="1.93" style="fill:#f0f0f0"></rect><rect x="165.63" y="241.85" width="1.93" height="1.93" style="fill:#f0f0f0"></rect><rect x="165.63" y="245.09" width="1.93" height="1.93" style="fill:#f0f0f0"></rect><rect x="165.63" y="248.32" width="1.93" height="1.93" style="fill:#f0f0f0"></rect><rect x="165.63" y="251.55" width="1.93" height="1.93" style="fill:#f0f0f0"></rect><rect x="165.63" y="254.79" width="1.93" height="1.93" style="fill:#f0f0f0"></rect><rect x="165.63" y="258.02" width="1.93" height="1.93" style="fill:#f0f0f0"></rect><rect x="165.63" y="261.25" width="1.93" height="1.93" style="fill:#f0f0f0"></rect><rect x="165.63" y="264.49" width="1.93" height="1.93" style="fill:#f0f0f0"></rect><rect x="165.63" y="267.72" width="1.93" height="1.93" style="fill:#f0f0f0"></rect><rect x="165.63" y="270.95" width="1.93" height="1.93" style="fill:#f0f0f0"></rect><rect x="165.63" y="274.19" width="1.93" height="1.93" style="fill:#f0f0f0"></rect><rect x="148.05" y="242.82" width="1.93" height="1.93" style="fill:#f0f0f0"></rect><rect x="148.05" y="246.05" width="1.93" height="1.93" style="fill:#f0f0f0"></rect><rect x="148.05" y="249.28" width="1.93" height="1.93" style="fill:#f0f0f0"></rect><rect x="148.05" y="252.52" width="1.93" height="1.93" style="fill:#f0f0f0"></rect><rect x="148.05" y="255.75" width="1.93" height="1.93" style="fill:#f0f0f0"></rect><rect x="148.05" y="258.99" width="1.93" height="1.93" style="fill:#f0f0f0"></rect><rect x="148.05" y="262.22" width="1.93" height="1.93" style="fill:#f0f0f0"></rect><rect x="148.05" y="265.45" width="1.93" height="1.93" style="fill:#f0f0f0"></rect><rect x="148.05" y="268.69" width="1.93" height="1.93" style="fill:#f0f0f0"></rect><rect x="148.05" y="271.92" width="1.93" height="1.93" style="fill:#f0f0f0"></rect><rect x="148.05" y="275.15" width="1.93" height="1.93" style="fill:#f0f0f0"></rect><rect x="148.05" y="278.39" width="1.93" height="1.28" style="fill:#f0f0f0"></rect><rect x="151.11" y="242.82" width="1.93" height="1.93" style="fill:#f0f0f0"></rect><rect x="151.11" y="246.05" width="1.93" height="1.93" style="fill:#f0f0f0"></rect><rect x="151.11" y="249.28" width="1.93" height="1.93" style="fill:#f0f0f0"></rect><rect x="151.11" y="252.52" width="1.93" height="1.93" style="fill:#f0f0f0"></rect><rect x="151.11" y="255.75" width="1.93" height="1.93" style="fill:#f0f0f0"></rect><rect x="151.11" y="258.99" width="1.93" height="1.93" style="fill:#f0f0f0"></rect><rect x="151.11" y="262.22" width="1.93" height="1.93" style="fill:#f0f0f0"></rect><rect x="151.11" y="265.45" width="1.93" height="1.93" style="fill:#f0f0f0"></rect><rect x="151.11" y="268.69" width="1.93" height="1.93" style="fill:#f0f0f0"></rect><rect x="151.11" y="271.92" width="1.93" height="1.93" style="fill:#f0f0f0"></rect><rect x="151.11" y="275.15" width="1.93" height="1.93" style="fill:#f0f0f0"></rect><rect x="151.11" y="278.39" width="1.93" height="1.28" style="fill:#f0f0f0"></rect><rect x="154.17" y="242.82" width="1.93" height="1.93" style="fill:#f0f0f0"></rect><rect x="154.17" y="246.05" width="1.93" height="1.93" style="fill:#f0f0f0"></rect><rect x="154.17" y="249.28" width="1.93" height="1.93" style="fill:#f0f0f0"></rect><rect x="154.17" y="252.52" width="1.93" height="1.93" style="fill:#f0f0f0"></rect><rect x="154.17" y="255.75" width="1.93" height="1.93" style="fill:#f0f0f0"></rect><rect x="154.17" y="258.99" width="1.93" height="1.93" style="fill:#f0f0f0"></rect><rect x="154.17" y="262.22" width="1.93" height="1.93" style="fill:#f0f0f0"></rect><rect x="154.17" y="265.45" width="1.93" height="1.93" style="fill:#f0f0f0"></rect><rect x="154.17" y="268.69" width="1.93" height="1.93" style="fill:#f0f0f0"></rect><rect x="154.17" y="271.92" width="1.93" height="1.93" style="fill:#f0f0f0"></rect><rect x="154.17" y="275.15" width="1.93" height="1.93" style="fill:#f0f0f0"></rect><rect x="154.17" y="278.39" width="1.93" height="1.28" style="fill:#f0f0f0"></rect><rect x="171.19" y="243.78" width="1.93" height="1.93" style="fill:#f0f0f0"></rect><rect x="171.19" y="247.02" width="1.93" height="1.93" style="fill:#f0f0f0"></rect><rect x="171.19" y="250.25" width="1.93" height="1.93" style="fill:#f0f0f0"></rect><rect x="171.19" y="253.48" width="1.93" height="1.93" style="fill:#f0f0f0"></rect><rect x="171.19" y="256.72" width="1.93" height="1.93" style="fill:#f0f0f0"></rect><rect x="171.19" y="259.95" width="1.93" height="1.93" style="fill:#f0f0f0"></rect><rect x="171.19" y="263.18" width="1.93" height="1.93" style="fill:#f0f0f0"></rect><rect x="171.19" y="266.42" width="1.93" height="1.93" style="fill:#f0f0f0"></rect><rect x="171.19" y="269.65" width="1.93" height="1.93" style="fill:#f0f0f0"></rect><rect x="171.19" y="272.88" width="1.93" height="1.93" style="fill:#f0f0f0"></rect><rect x="174.25" y="243.78" width="1.93" height="1.93" style="fill:#f0f0f0"></rect><rect x="174.25" y="247.02" width="1.93" height="1.93" style="fill:#f0f0f0"></rect><rect x="174.25" y="250.25" width="1.93" height="1.93" style="fill:#f0f0f0"></rect><rect x="174.25" y="253.48" width="1.93" height="1.93" style="fill:#f0f0f0"></rect><rect x="174.25" y="256.72" width="1.93" height="1.93" style="fill:#f0f0f0"></rect><rect x="174.25" y="259.95" width="1.93" height="1.93" style="fill:#f0f0f0"></rect><rect x="174.25" y="263.18" width="1.93" height="1.93" style="fill:#f0f0f0"></rect><rect x="174.25" y="266.42" width="1.93" height="1.93" style="fill:#f0f0f0"></rect><rect x="174.25" y="269.65" width="1.93" height="1.93" style="fill:#f0f0f0"></rect><rect x="174.25" y="279.35" width="1.93" height="0.33" style="fill:#f0f0f0"></rect><rect x="177.32" y="243.78" width="1.93" height="1.93" style="fill:#f0f0f0"></rect><rect x="177.32" y="247.02" width="1.93" height="1.93" style="fill:#f0f0f0"></rect><rect x="177.32" y="250.25" width="1.93" height="1.93" style="fill:#f0f0f0"></rect><rect x="177.32" y="253.48" width="1.93" height="1.93" style="fill:#f0f0f0"></rect><rect x="177.32" y="256.72" width="1.93" height="1.93" style="fill:#f0f0f0"></rect><rect x="177.32" y="259.95" width="1.93" height="1.93" style="fill:#f0f0f0"></rect><rect x="177.32" y="263.18" width="1.93" height="1.93" style="fill:#f0f0f0"></rect><rect x="177.32" y="266.42" width="1.93" height="1.93" style="fill:#f0f0f0"></rect><rect x="177.32" y="276.12" width="1.93" height="1.93" style="fill:#f0f0f0"></rect><rect x="177.32" y="279.35" width="1.93" height="0.33" style="fill:#f0f0f0"></rect><rect x="205.79" y="194.66" width="1.93" height="1.93" style="fill:#f0f0f0"></rect><rect x="205.79" y="197.89" width="1.93" height="1.93" style="fill:#f0f0f0"></rect><rect x="205.79" y="201.12" width="1.93" height="1.93" style="fill:#f0f0f0"></rect><rect x="205.79" y="204.36" width="1.93" height="1.93" style="fill:#f0f0f0"></rect><rect x="205.79" y="207.59" width="1.93" height="1.93" style="fill:#f0f0f0"></rect><rect x="205.79" y="210.82" width="1.93" height="1.93" style="fill:#f0f0f0"></rect><rect x="205.79" y="214.06" width="1.93" height="1.93" style="fill:#f0f0f0"></rect><rect x="205.79" y="217.29" width="1.93" height="1.93" style="fill:#f0f0f0"></rect><rect x="205.79" y="220.52" width="1.93" height="1.93" style="fill:#f0f0f0"></rect><rect x="205.79" y="223.76" width="1.93" height="1.93" style="fill:#f0f0f0"></rect><rect x="205.79" y="226.99" width="1.93" height="1.93" style="fill:#f0f0f0"></rect><rect x="205.79" y="230.23" width="1.93" height="1.93" style="fill:#f0f0f0"></rect><rect x="205.79" y="233.46" width="1.93" height="1.93" style="fill:#f0f0f0"></rect><rect x="205.79" y="236.69" width="1.93" height="1.93" style="fill:#f0f0f0"></rect><rect x="205.79" y="239.93" width="1.93" height="1.93" style="fill:#f0f0f0"></rect><rect x="205.79" y="243.16" width="1.93" height="1.93" style="fill:#f0f0f0"></rect><rect x="205.79" y="246.39" width="1.93" height="1.93" style="fill:#f0f0f0"></rect><rect x="205.79" y="252.86" width="1.93" height="1.93" style="fill:#f0f0f0"></rect><rect x="205.79" y="256.09" width="1.93" height="1.93" style="fill:#f0f0f0"></rect><rect x="205.79" y="259.33" width="1.93" height="1.93" style="fill:#f0f0f0"></rect><rect x="205.79" y="262.56" width="1.93" height="1.93" style="fill:#f0f0f0"></rect><rect x="205.79" y="265.79" width="1.93" height="1.93" style="fill:#f0f0f0"></rect><rect x="208.86" y="194.66" width="1.93" height="1.93" style="fill:#f0f0f0"></rect><rect x="208.86" y="197.89" width="1.93" height="1.93" style="fill:#f0f0f0"></rect><rect x="208.86" y="201.12" width="1.93" height="1.93" style="fill:#f0f0f0"></rect><rect x="208.86" y="204.36" width="1.93" height="1.93" style="fill:#f0f0f0"></rect><rect x="208.86" y="207.59" width="1.93" height="1.93" style="fill:#f0f0f0"></rect><rect x="208.86" y="210.82" width="1.93" height="1.93" style="fill:#f0f0f0"></rect><rect x="208.86" y="214.06" width="1.93" height="1.93" style="fill:#f0f0f0"></rect><rect x="208.86" y="217.29" width="1.93" height="1.93" style="fill:#f0f0f0"></rect><rect x="208.86" y="220.52" width="1.93" height="1.93" style="fill:#f0f0f0"></rect><rect x="208.86" y="223.76" width="1.93" height="1.93" style="fill:#f0f0f0"></rect><rect x="208.86" y="226.99" width="1.93" height="1.93" style="fill:#f0f0f0"></rect><rect x="208.86" y="230.23" width="1.93" height="1.93" style="fill:#f0f0f0"></rect><rect x="208.86" y="233.46" width="1.93" height="1.93" style="fill:#f0f0f0"></rect><rect x="208.86" y="236.69" width="1.93" height="1.93" style="fill:#f0f0f0"></rect><rect x="208.86" y="239.93" width="1.93" height="1.93" style="fill:#f0f0f0"></rect><rect x="208.86" y="243.16" width="1.93" height="1.93" style="fill:#f0f0f0"></rect><rect x="208.86" y="262.56" width="1.93" height="1.93" style="fill:#f0f0f0"></rect><rect x="208.86" y="265.79" width="1.93" height="1.93" style="fill:#f0f0f0"></rect><rect x="211.92" y="194.66" width="1.93" height="1.93" style="fill:#f0f0f0"></rect><rect x="211.92" y="197.89" width="1.93" height="1.93" style="fill:#f0f0f0"></rect><rect x="211.92" y="201.12" width="1.93" height="1.93" style="fill:#f0f0f0"></rect><rect x="211.92" y="204.36" width="1.93" height="1.93" style="fill:#f0f0f0"></rect><rect x="211.92" y="207.59" width="1.93" height="1.93" style="fill:#f0f0f0"></rect><rect x="211.92" y="210.82" width="1.93" height="1.93" style="fill:#f0f0f0"></rect><rect x="211.92" y="214.06" width="1.93" height="1.93" style="fill:#f0f0f0"></rect><rect x="211.92" y="217.29" width="1.93" height="1.93" style="fill:#f0f0f0"></rect><rect x="211.92" y="220.52" width="1.93" height="1.93" style="fill:#f0f0f0"></rect><rect x="211.92" y="223.76" width="1.93" height="1.93" style="fill:#f0f0f0"></rect><rect x="211.92" y="226.99" width="1.93" height="1.93" style="fill:#f0f0f0"></rect><rect x="211.92" y="230.23" width="1.93" height="1.93" style="fill:#f0f0f0"></rect><rect x="211.92" y="233.46" width="1.93" height="1.93" style="fill:#f0f0f0"></rect><rect x="211.92" y="236.69" width="1.93" height="1.93" style="fill:#f0f0f0"></rect><rect x="211.92" y="239.93" width="1.93" height="1.93" style="fill:#f0f0f0"></rect><rect x="211.92" y="243.16" width="1.93" height="1.93" style="fill:#f0f0f0"></rect><rect x="211.92" y="249.63" width="1.93" height="1.93" style="fill:#f0f0f0"></rect><rect x="211.92" y="252.86" width="1.93" height="1.93" style="fill:#f0f0f0"></rect><rect x="211.92" y="256.09" width="1.93" height="1.93" style="fill:#f0f0f0"></rect><rect x="211.92" y="259.33" width="1.93" height="1.93" style="fill:#f0f0f0"></rect><rect x="211.92" y="265.79" width="1.93" height="1.93" style="fill:#f0f0f0"></rect><rect x="194.68" y="235.39" width="1.93" height="1.93" style="fill:#f0f0f0"></rect><rect x="194.68" y="238.62" width="1.93" height="1.93" style="fill:#f0f0f0"></rect><rect x="194.68" y="241.85" width="1.93" height="1.93" style="fill:#f0f0f0"></rect><rect x="194.68" y="245.09" width="1.93" height="1.93" style="fill:#f0f0f0"></rect><rect x="194.68" y="248.32" width="1.93" height="1.93" style="fill:#f0f0f0"></rect><rect x="194.68" y="251.55" width="1.93" height="1.93" style="fill:#f0f0f0"></rect><rect x="194.68" y="254.79" width="1.93" height="1.93" style="fill:#f0f0f0"></rect><rect x="194.68" y="261.25" width="1.93" height="1.93" style="fill:#f0f0f0"></rect><rect x="194.68" y="264.49" width="1.93" height="1.93" style="fill:#f0f0f0"></rect><rect x="194.68" y="267.72" width="1.93" height="1.93" style="fill:#f0f0f0"></rect><rect x="194.68" y="270.95" width="1.93" height="1.93" style="fill:#f0f0f0"></rect><rect x="194.68" y="274.19" width="1.93" height="1.93" style="fill:#f0f0f0"></rect><rect x="194.68" y="277.42" width="1.93" height="1.93" style="fill:#f0f0f0"></rect><rect x="197.74" y="235.39" width="1.93" height="1.93" style="fill:#f0f0f0"></rect><rect x="197.74" y="238.62" width="1.93" height="1.93" style="fill:#f0f0f0"></rect><rect x="197.74" y="241.85" width="1.93" height="1.93" style="fill:#f0f0f0"></rect><rect x="197.74" y="245.09" width="1.93" height="1.93" style="fill:#f0f0f0"></rect><rect x="197.74" y="248.32" width="1.93" height="1.93" style="fill:#f0f0f0"></rect><rect x="197.74" y="251.55" width="1.93" height="1.93" style="fill:#f0f0f0"></rect><rect x="197.74" y="261.25" width="1.93" height="1.93" style="fill:#f0f0f0"></rect><rect x="197.74" y="264.49" width="1.93" height="1.93" style="fill:#f0f0f0"></rect><rect x="197.74" y="267.72" width="1.93" height="1.93" style="fill:#f0f0f0"></rect><rect x="197.74" y="270.95" width="1.93" height="1.93" style="fill:#f0f0f0"></rect><rect x="197.74" y="274.19" width="1.93" height="1.93" style="fill:#f0f0f0"></rect><rect x="197.74" y="277.42" width="1.93" height="1.93" style="fill:#f0f0f0"></rect><rect x="200.8" y="235.39" width="1.93" height="1.93" style="fill:#f0f0f0"></rect><rect x="200.8" y="238.62" width="1.93" height="1.93" style="fill:#f0f0f0"></rect><rect x="200.8" y="241.85" width="1.93" height="1.93" style="fill:#f0f0f0"></rect><rect x="200.8" y="245.09" width="1.93" height="1.93" style="fill:#f0f0f0"></rect><rect x="200.8" y="248.32" width="1.93" height="1.93" style="fill:#f0f0f0"></rect><rect x="200.8" y="251.55" width="1.93" height="1.93" style="fill:#f0f0f0"></rect><rect x="200.8" y="258.02" width="1.93" height="1.93" style="fill:#f0f0f0"></rect><rect x="200.8" y="261.25" width="1.93" height="1.93" style="fill:#f0f0f0"></rect><rect x="200.8" y="264.49" width="1.93" height="1.93" style="fill:#f0f0f0"></rect><rect x="200.8" y="267.72" width="1.93" height="1.93" style="fill:#f0f0f0"></rect><rect x="200.8" y="270.95" width="1.93" height="1.93" style="fill:#f0f0f0"></rect><rect x="200.8" y="274.19" width="1.93" height="1.93" style="fill:#f0f0f0"></rect><rect x="200.8" y="277.42" width="1.93" height="1.93" style="fill:#f0f0f0"></rect><rect x="265.36" y="217.29" width="1.93" height="1.93" style="fill:#f0f0f0"></rect><rect x="265.36" y="220.52" width="1.93" height="1.93" style="fill:#f0f0f0"></rect><rect x="265.36" y="223.76" width="1.93" height="1.93" style="fill:#f0f0f0"></rect><rect x="265.36" y="226.99" width="1.93" height="1.93" style="fill:#f0f0f0"></rect><rect x="265.36" y="230.23" width="1.93" height="1.93" style="fill:#f0f0f0"></rect><rect x="265.36" y="233.46" width="1.93" height="1.93" style="fill:#f0f0f0"></rect><rect x="265.36" y="236.69" width="1.93" height="1.93" style="fill:#f0f0f0"></rect><rect x="265.36" y="239.93" width="1.93" height="1.93" style="fill:#f0f0f0"></rect><rect x="265.36" y="243.16" width="1.93" height="1.93" style="fill:#f0f0f0"></rect><rect x="265.36" y="246.39" width="1.93" height="1.93" style="fill:#f0f0f0"></rect><rect x="265.36" y="249.63" width="1.93" height="1.93" style="fill:#f0f0f0"></rect><rect x="265.36" y="252.86" width="1.93" height="1.93" style="fill:#f0f0f0"></rect><rect x="265.36" y="256.09" width="1.93" height="1.93" style="fill:#f0f0f0"></rect><rect x="265.36" y="262.56" width="1.93" height="1.93" style="fill:#f0f0f0"></rect><rect x="265.36" y="265.79" width="1.93" height="1.93" style="fill:#f0f0f0"></rect><rect x="265.36" y="269.03" width="1.93" height="1.93" style="fill:#f0f0f0"></rect><rect x="265.36" y="272.26" width="1.93" height="1.93" style="fill:#f0f0f0"></rect><rect x="265.36" y="278.72" width="1.93" height="1.93" style="fill:#f0f0f0"></rect><rect x="268.42" y="217.29" width="1.93" height="1.93" style="fill:#f0f0f0"></rect><rect x="268.42" y="220.52" width="1.93" height="1.93" style="fill:#f0f0f0"></rect><rect x="268.42" y="223.76" width="1.93" height="1.93" style="fill:#f0f0f0"></rect><rect x="268.42" y="226.99" width="1.93" height="1.93" style="fill:#f0f0f0"></rect><rect x="268.42" y="230.23" width="1.93" height="1.93" style="fill:#f0f0f0"></rect><rect x="268.42" y="233.46" width="1.93" height="1.93" style="fill:#f0f0f0"></rect><rect x="268.42" y="236.69" width="1.93" height="1.93" style="fill:#f0f0f0"></rect><rect x="268.42" y="239.93" width="1.93" height="1.93" style="fill:#f0f0f0"></rect><rect x="268.42" y="243.16" width="1.93" height="1.93" style="fill:#f0f0f0"></rect><rect x="268.42" y="246.39" width="1.93" height="1.93" style="fill:#f0f0f0"></rect><rect x="268.42" y="249.63" width="1.93" height="1.93" style="fill:#f0f0f0"></rect><rect x="268.42" y="252.86" width="1.93" height="1.93" style="fill:#f0f0f0"></rect><rect x="268.42" y="256.09" width="1.93" height="1.93" style="fill:#f0f0f0"></rect><rect x="268.42" y="265.79" width="1.93" height="1.93" style="fill:#f0f0f0"></rect><rect x="268.42" y="269.03" width="1.93" height="1.93" style="fill:#f0f0f0"></rect><rect x="268.42" y="275.49" width="1.93" height="1.93" style="fill:#f0f0f0"></rect><rect x="268.42" y="278.72" width="1.93" height="1.93" style="fill:#f0f0f0"></rect><rect x="271.48" y="217.29" width="1.93" height="1.93" style="fill:#f0f0f0"></rect><rect x="271.48" y="220.52" width="1.93" height="1.93" style="fill:#f0f0f0"></rect><rect x="271.48" y="223.76" width="1.93" height="1.93" style="fill:#f0f0f0"></rect><rect x="271.48" y="226.99" width="1.93" height="1.93" style="fill:#f0f0f0"></rect><rect x="271.48" y="230.23" width="1.93" height="1.93" style="fill:#f0f0f0"></rect><rect x="271.48" y="233.46" width="1.93" height="1.93" style="fill:#f0f0f0"></rect><rect x="271.48" y="236.69" width="1.93" height="1.93" style="fill:#f0f0f0"></rect><rect x="271.48" y="239.93" width="1.93" height="1.93" style="fill:#f0f0f0"></rect><rect x="271.48" y="243.16" width="1.93" height="1.93" style="fill:#f0f0f0"></rect><rect x="271.48" y="246.39" width="1.93" height="1.93" style="fill:#f0f0f0"></rect><rect x="271.48" y="249.63" width="1.93" height="1.93" style="fill:#f0f0f0"></rect><rect x="271.48" y="252.86" width="1.93" height="1.93" style="fill:#f0f0f0"></rect><rect x="271.48" y="256.09" width="1.93" height="1.93" style="fill:#f0f0f0"></rect><rect x="271.48" y="259.33" width="1.93" height="1.93" style="fill:#f0f0f0"></rect><rect x="271.48" y="265.79" width="1.93" height="1.93" style="fill:#f0f0f0"></rect><rect x="271.48" y="272.26" width="1.93" height="1.93" style="fill:#f0f0f0"></rect><rect x="271.48" y="275.49" width="1.93" height="1.93" style="fill:#f0f0f0"></rect><rect x="271.48" y="278.72" width="1.93" height="1.93" style="fill:#f0f0f0"></rect><rect x="252.88" y="235.73" width="1.93" height="1.93" style="fill:#f0f0f0"></rect><rect x="252.88" y="238.96" width="1.93" height="1.93" style="fill:#f0f0f0"></rect><rect x="252.88" y="242.19" width="1.93" height="1.93" style="fill:#f0f0f0"></rect><rect x="252.88" y="245.43" width="1.93" height="1.93" style="fill:#f0f0f0"></rect><rect x="252.88" y="248.66" width="1.93" height="1.93" style="fill:#f0f0f0"></rect><rect x="252.88" y="251.89" width="1.93" height="1.93" style="fill:#f0f0f0"></rect><rect x="252.88" y="261.59" width="1.93" height="1.93" style="fill:#f0f0f0"></rect><rect x="252.88" y="264.83" width="1.93" height="1.93" style="fill:#f0f0f0"></rect><rect x="252.88" y="268.06" width="1.93" height="1.93" style="fill:#f0f0f0"></rect><rect x="252.88" y="271.29" width="1.93" height="1.93" style="fill:#f0f0f0"></rect><rect x="252.88" y="274.53" width="1.93" height="1.93" style="fill:#f0f0f0"></rect><rect x="252.88" y="277.76" width="1.93" height="1.93" style="fill:#f0f0f0"></rect><rect x="255.94" y="235.73" width="1.93" height="1.93" style="fill:#f0f0f0"></rect><rect x="255.94" y="238.96" width="1.93" height="1.93" style="fill:#f0f0f0"></rect><rect x="255.94" y="242.19" width="1.93" height="1.93" style="fill:#f0f0f0"></rect><rect x="255.94" y="245.43" width="1.93" height="1.93" style="fill:#f0f0f0"></rect><rect x="255.94" y="248.66" width="1.93" height="1.93" style="fill:#f0f0f0"></rect><rect x="255.94" y="251.89" width="1.93" height="1.93" style="fill:#f0f0f0"></rect><rect x="255.94" y="261.59" width="1.93" height="1.93" style="fill:#f0f0f0"></rect><rect x="255.94" y="264.83" width="1.93" height="1.93" style="fill:#f0f0f0"></rect><rect x="255.94" y="268.06" width="1.93" height="1.93" style="fill:#f0f0f0"></rect><rect x="255.94" y="271.29" width="1.93" height="1.93" style="fill:#f0f0f0"></rect><rect x="255.94" y="274.53" width="1.93" height="1.93" style="fill:#f0f0f0"></rect><rect x="255.94" y="277.76" width="1.93" height="1.93" style="fill:#f0f0f0"></rect><rect x="342.62" y="234.08" width="1.93" height="1.93" style="fill:#f0f0f0"></rect><rect x="342.62" y="237.32" width="1.93" height="1.93" style="fill:#f0f0f0"></rect><rect x="342.62" y="240.55" width="1.93" height="1.93" style="fill:#f0f0f0"></rect><rect x="342.62" y="243.78" width="1.93" height="1.93" style="fill:#f0f0f0"></rect><rect x="342.62" y="247.02" width="1.93" height="1.93" style="fill:#f0f0f0"></rect><rect x="342.62" y="250.25" width="1.93" height="1.93" style="fill:#f0f0f0"></rect><rect x="342.62" y="253.48" width="1.93" height="1.93" style="fill:#f0f0f0"></rect><rect x="342.62" y="256.72" width="1.93" height="1.93" style="fill:#f0f0f0"></rect><rect x="342.62" y="259.95" width="1.93" height="1.93" style="fill:#f0f0f0"></rect><rect x="342.62" y="263.18" width="1.93" height="1.93" style="fill:#f0f0f0"></rect><rect x="345.68" y="234.08" width="1.93" height="1.93" style="fill:#f0f0f0"></rect><rect x="345.68" y="237.32" width="1.93" height="1.93" style="fill:#f0f0f0"></rect><rect x="345.68" y="240.55" width="1.93" height="1.93" style="fill:#f0f0f0"></rect><rect x="345.68" y="243.78" width="1.93" height="1.93" style="fill:#f0f0f0"></rect><rect x="345.68" y="247.02" width="1.93" height="1.93" style="fill:#f0f0f0"></rect><rect x="345.68" y="250.25" width="1.93" height="1.93" style="fill:#f0f0f0"></rect><rect x="345.68" y="253.48" width="1.93" height="1.93" style="fill:#f0f0f0"></rect><rect x="345.68" y="256.72" width="1.93" height="1.93" style="fill:#f0f0f0"></rect><rect x="345.68" y="259.95" width="1.93" height="1.93" style="fill:#f0f0f0"></rect><rect x="183.77" y="137.66" width="0.94" height="142.99" style="fill:#e0e0e0"></rect><rect x="226.36" y="137.66" width="0.94" height="142.99" style="fill:#e0e0e0"></rect><rect x="268.94" y="137.66" width="0.94" height="142.99" style="fill:#e0e0e0"></rect><rect x="311.52" y="137.66" width="0.94" height="142.99" style="fill:#e0e0e0"></rect><rect x="139.38" y="131.95" width="223.69" height="11.56" style="fill:#e0e0e0"></rect><rect x="149.01" y="131.95" width="214.06" height="11.56" style="fill:#ebebeb"></rect><path d="M142.18,268.26a2.46,2.46,0,0,1-2.46-2.45V139.89h1V265.81a1.46,1.46,0,0,0,2.91,0V138h1V265.81A2.45,2.45,0,0,1,142.18,268.26Z" style="fill:#e0e0e0"></path><path d="M143.18,133.81h-2V136a7.33,7.33,0,0,0-.27,1.94,7.25,7.25,0,0,0,.27,1.93v2.22h2c1.25,0,2.27-1.86,2.27-4.15S144.43,133.81,143.18,133.81Z" style="fill:#ebebeb"></path><path d="M143.45,138c0,2.29-1,4.15-2.28,4.15s-2.27-1.86-2.27-4.15,1-4.15,2.27-4.15S143.45,135.67,143.45,138Z" style="fill:#f5f5f5"></path><rect x="389.51" y="155.13" width="20.19" height="30.1" style="fill:#f0f0f0"></rect><rect x="386.56" y="162.08" width="26.1" height="16.19" transform="translate(569.79 -229.43) rotate(90)" style="fill:#fafafa"></rect><rect x="404.58" y="189.73" width="20.19" height="30.1" style="fill:#f0f0f0"></rect><rect x="401.62" y="196.68" width="26.1" height="16.19" transform="translate(619.45 -209.9) rotate(90)" style="fill:#fafafa"></rect><rect x="378.47" y="206.71" width="20.19" height="30.1" style="fill:#f0f0f0"></rect><rect x="375.51" y="213.66" width="26.1" height="16.19" transform="translate(610.33 -166.81) rotate(90)" style="fill:#fafafa"></rect></g><g id="freepik--Shadow--inject-3"><ellipse id="freepik--path--inject-3" cx="250" cy="416.24" rx="193.89" ry="11.32" style="fill:#f5f5f5"></ellipse></g><g id="freepik--Plant--inject-3"><path d="M407.88,386.58h.05c.22,0,.37-.18.34-.33s-.09-.6-.21-1.54c-.18-1.43-.52-4.48-.68-8.68v-.19a123.94,123.94,0,0,1,.34-14.77,119.76,119.76,0,0,1,2-14.23,106.33,106.33,0,0,1,3.45-12.66l0,0h0c.22-.64.45-1.29.69-1.93s.39-1.06.6-1.6c.55-1.39,1-2.73,1.47-4,1-2.79,1.84-5.62,2.58-8.41.45-1.7.86-3.38,1.2-5a107,107,0,0,0,2.41-19.76c.08-2.77,0-5.57-.13-8.32a80.3,80.3,0,0,0-1-8.88c0-.21-.07-.41-.1-.6l-.05-.29a.56.56,0,0,0-1-.34.61.61,0,0,0-.16.57h0l.06.29c0,.2.06.41.11.62a80,80,0,0,1,1,8.75c.17,2.72.22,5.49.15,8.24a106.29,106.29,0,0,1-2.33,19.6c-.34,1.61-.73,3.28-1.18,5-.72,2.78-1.58,5.59-2.54,8.37-.42,1.25-.91,2.59-1.45,4-.21.54-.41,1.08-.6,1.61s-.47,1.3-.69,1.94v0h0a104.08,104.08,0,0,0-3.44,12.75,119.16,119.16,0,0,0-2,14.32,126.66,126.66,0,0,0-.29,14.81,1.7,1.7,0,0,0,0,.22c.17,4.2.52,7.25.7,8.69.12,1,.21,1.53.22,1.58S407.68,386.59,407.88,386.58Z" style="fill:#37896E"></path><path d="M420.33,275.6s0,0,0,0,0,0,0,0a16.27,16.27,0,0,0-3.22-2.21,16.61,16.61,0,0,0-4.1-1.49" style="fill:#37896E"></path><path d="M420.33,276.16a.6.6,0,0,0,.23-.06.57.57,0,0,0,.3-.75.66.66,0,0,0-.12-.17l-.06-.05h0a17,17,0,0,0-3.33-2.3,17.33,17.33,0,0,0-4.24-1.54.61.61,0,0,0-.71.44.55.55,0,0,0,.42.68,15.66,15.66,0,0,1,7.06,3.57h0A.57.57,0,0,0,420.33,276.16Z" style="fill:#37896E"></path><path d="M421.48,285.73a.62.62,0,0,0,.36-.14l3.82-3.2a.54.54,0,0,0,.08-.77.59.59,0,0,0-.8,0l-3.82,3.21a.51.51,0,0,0-.07.75A.54.54,0,0,0,421.48,285.73Z" style="fill:#37896E"></path><path d="M415.51,327a.52.52,0,0,0,.49-.47h0a8.88,8.88,0,0,0-.73-2.27,10.63,10.63,0,0,0-1.94-2.89,12.31,12.31,0,0,0-2.11-1.79.57.57,0,0,0-.72.08.39.39,0,0,0,.07.61,11.71,11.71,0,0,1,1.95,1.65,9.75,9.75,0,0,1,1.81,2.68,8.74,8.74,0,0,1,.68,2c0,.23.21.38.48.38Z" style="fill:#37896E"></path><path d="M412.74,334.49a.5.5,0,0,0,.44-.27,8.3,8.3,0,0,1,4.83-3.91.41.41,0,0,0,.3-.53.49.49,0,0,0-.62-.23,9.25,9.25,0,0,0-5.41,4.4.37.37,0,0,0,.26.51Z" style="fill:#37896E"></path><path d="M407,366.81c1-.87,1.72-4.16,2.14-5.95.1-.44.19-.81.26-1.08" style="fill:#37896E"></path><path d="M407,367.13a.47.47,0,0,0,.32-.12c1-.86,1.65-3.58,2.24-6.11.1-.43.19-.8.26-1.06s-.11-.36-.35-.39a.46.46,0,0,0-.53.28c-.07.27-.16.64-.26,1.08-.38,1.64-1.15,5-2,5.8a.27.27,0,0,0,.06.46A.49.49,0,0,0,407,367.13Z" style="fill:#37896E"></path><path d="M418.06,318.62a.5.5,0,0,0,.5-.43c.06-.73,1.26-18.81-10.56-25.95a.59.59,0,0,0-.77.15.48.48,0,0,0,.16.71c11.31,6.81,10.16,24.91,10.15,25.08a.44.44,0,0,0,.48.44Z" style="fill:#37896E"></path><path d="M417.64,351.89c1.16,3.23-8,9.42-8,9.42s-11.8-.87-13.18-4,1.54-8.68,7.5-10.24S416.45,348.58,417.64,351.89Z" style="fill:#37896E"></path><path d="M431.27,305.61c-1.67,4.61-11.65,7.94-11.65,7.94s-6.66-6.94-5.2-11.66,7.43-10.41,12.23-9.3S433,300.87,431.27,305.61Z" style="fill:#37896E"></path><path d="M404.92,320.29a13.17,13.17,0,0,0,4.1,1.92,5,5,0,0,0,4.39-.95c1.32-1.29,1-3.27.25-4.82-1.56-3.11-7.61-8.49-12.33-6.84C394.58,312,402,318.46,404.92,320.29Z" style="fill:#37896E"></path><path d="M418.09,327.65c-.87.89-1.8,2-1.38,3s1.71,1.31,2.88,1.14a9,9,0,0,0,3.2-1.33c2.33-1.33,7.16-4.18,4.36-6.76C424.2,321,420,325.76,418.09,327.65Z" style="fill:#37896E"></path><path d="M398.31,286.27a2.59,2.59,0,0,0-2.36,1.86c-.19,1.19.88,2.22,1.91,2.93,2.55,1.77,10,6.44,11.75,1.82C411.27,288.41,401.69,285.88,398.31,286.27Z" style="fill:#37896E"></path><path d="M412.77,269.5c-1.66.17-3.3-.41-4.95-.29s-3.5,1.46-3.13,3,2.17,1.91,3.69,2a30.43,30.43,0,0,0,7.72-.61,2.5,2.5,0,0,0,1.59-.79c.69-1-.32-2.24-1.45-2.58s-2.41-.2-3.43-.77Z" style="fill:#37896E"></path><path d="M428.19,280.23c1.6,0,3.19-.65,4.8-.67s3.37,1.08,3,2.6-2.13,2-3.6,2.17a29.74,29.74,0,0,1-7.48.07,2.18,2.18,0,0,1-1.53-.62c-.67-.85.34-2.14,1.43-2.54s2.34-.39,3.34-1Z" style="fill:#37896E"></path><path d="M420.79,277.67h0a.59.59,0,0,0,.53-.62c-.23-3.07.11-6.09.71-6.29a.62.62,0,0,0,.4-.74.55.55,0,0,0-.72-.35c-1.87.63-1.7,5.49-1.54,7.52A.55.55,0,0,0,420.79,277.67Z" style="fill:#37896E"></path><path d="M419.67,270.45c1.09-2.23,2.28-4.59,4.35-6.07s5.33-1.63,6.66.37c1.48,2.22-.37,5.58-2.9,6.77s-5.38.86-8.06.51c0-.39,0-.79,0-1.18Z" style="fill:#37896E"></path><path d="M407.15,395.73h.07c.21,0,.35-.18.3-.32-3.29-9.53-12.06-13.53-12.15-13.57a.53.53,0,0,0-.58.09c-.12.13-.07.31.13.4a24.43,24.43,0,0,1,11.83,13.22A.39.39,0,0,0,407.15,395.73Z" style="fill:#37896E"></path><path d="M397.74,383.85a.42.42,0,0,0,.37-.21c.07-.15-.05-.31-.27-.35a13.26,13.26,0,0,0-4.37.12c-.22,0-.36.2-.3.35a.44.44,0,0,0,.5.21,12.42,12.42,0,0,1,3.93-.13Z" style="fill:#37896E"></path><path d="M399.74,385.34c.22,0,.39-.14.39-.29,0-3.93-3.34-6.9-3.48-7a.58.58,0,0,0-.6,0,.25.25,0,0,0-.07.42s3.28,2.94,3.32,6.67c0,.15.19.28.42.27Z" style="fill:#37896E"></path><path d="M402.92,388.44a.47.47,0,0,0,.28-.09.22.22,0,0,0,0-.39,7.67,7.67,0,0,0-5.7-.63c-.21.05-.32.21-.24.36a.48.48,0,0,0,.53.15,6.62,6.62,0,0,1,4.86.54A.51.51,0,0,0,402.92,388.44Z" style="fill:#37896E"></path><path d="M404.55,390.58a.42.42,0,0,0,.35-.18,6.52,6.52,0,0,0,.57-4.72.42.42,0,0,0-.47-.22c-.23,0-.38.18-.34.33a6.32,6.32,0,0,1-.5,4.42c-.08.14,0,.3.22.35A.47.47,0,0,0,404.55,390.58Z" style="fill:#37896E"></path><path d="M406.15,392.67c0,.05.31.23-.83.34-2.8.27-7.75.5-9.71-1-2.83-2.17,3.4-2.39,2.73-3.67s-7.33.27-8.79-1.54S393,385,392.74,384s-5.41.68-7.32-1.29,2.77-1.18,1.95-2-7.11-4.16-4.78-5.19,8.25,2.54,10.11,2.83,2.05-3.62,4.55-2.48,1.15,6.95,3.93,7.44c2.06.37.88-1.55,3.42-1.65C408.05,381.51,409.23,389.1,406.15,392.67Z" style="fill:#37896E"></path><g style="opacity:0.30000000000000004"><path d="M406.15,392.67c0,.05.31.23-.83.34-2.8.27-7.75.5-9.71-1-2.83-2.17,3.4-2.39,2.73-3.67s-7.33.27-8.79-1.54S393,385,392.74,384s-5.41.68-7.32-1.29,2.77-1.18,1.95-2-7.11-4.16-4.78-5.19,8.25,2.54,10.11,2.83,2.05-3.62,4.55-2.48,1.15,6.95,3.93,7.44c2.06.37.88-1.55,3.42-1.65C408.05,381.51,409.23,389.1,406.15,392.67Z" style="fill:#fff"></path></g><path d="M407.46,395.94a.39.39,0,0,0,.37-.21c2.74-8.15,11-13.89,11.1-13.94a.24.24,0,0,0,0-.41.55.55,0,0,0-.59,0c-.09.06-8.53,5.92-11.31,14.24,0,.15.09.28.3.31Z" style="fill:#37896E"></path><path d="M413.65,385.94c0-.14.07-.29.27-.34l.05,0a17.16,17.16,0,0,1,4.8-.75c.22,0,.4.12.38.28s-.21.28-.43.28a16.2,16.2,0,0,0-4.45.7l0,0-.09,0h-.08A.38.38,0,0,1,413.65,385.94Zm.18-.31.09,0Zm.13,0Z" style="fill:#37896E"></path><path d="M412.47,387.59h0c.22,0,.39-.16.37-.31-.34-3.19,2.17-5.94,2.2-6a.24.24,0,0,0-.11-.4.55.55,0,0,0-.58.1c-.11.12-2.69,2.95-2.32,6.34C412.07,387.49,412.25,387.6,412.47,387.59Z" style="fill:#37896E"></path><path d="M410.84,389.47a.48.48,0,0,0,.27-.08,6,6,0,0,1,4.16-.8.46.46,0,0,0,.5-.2c.07-.15-.06-.3-.27-.33a7.08,7.08,0,0,0-4.95,1,.21.21,0,0,0,0,.38A.45.45,0,0,0,410.84,389.47Z" style="fill:#37896E"></path><path d="M408.8,392.51a.47.47,0,0,0,.17,0c.2-.08.27-.24.18-.37a5.31,5.31,0,0,1-.87-3.75c0-.15-.15-.28-.37-.29a.39.39,0,0,0-.44.27,5.74,5.74,0,0,0,1,4A.46.46,0,0,0,408.8,392.51Z" style="fill:#37896E"></path><path d="M407.61,394.61a14.36,14.36,0,0,0,7.38-2.8c1.54-1.38-2.67-.45-2.21-1.52s5.61-.41,6.65-2-2.74-1.13-2.56-1.94,4.11-.73,5.47-2.45-2.16-.7-1.57-1.42,5.21-3.87,3.4-4.48-6.15,2.69-7.55,3.08-1.64-1.8-3.49-.71-.61,5.53-2.7,6.16c-1.56.46-.87-1.57-2.67-1C404.63,386.51,406.73,394.62,407.61,394.61Z" style="fill:#37896E"></path><g style="opacity:0.2"><path d="M407.61,394.61a14.36,14.36,0,0,0,7.38-2.8c1.54-1.38-2.67-.45-2.21-1.52s5.61-.41,6.65-2-2.74-1.13-2.56-1.94,4.11-.73,5.47-2.45-2.16-.7-1.57-1.42,5.21-3.87,3.4-4.48-6.15,2.69-7.55,3.08-1.64-1.8-3.49-.71-.61,5.53-2.7,6.16c-1.56.46-.87-1.57-2.67-1C404.63,386.51,406.73,394.62,407.61,394.61Z" style="fill:#fff"></path></g><polygon points="391.46 415.47 421.81 415.47 424.68 396.93 388.59 396.93 391.46 415.47" style="fill:#263238"></polygon><polygon points="387.79 401.21 425.48 401.21 427.47 389.4 385.8 389.4 387.79 401.21" style="fill:#263238"></polygon><polygon points="387.79 401.21 425.48 401.21 427.47 389.4 385.8 389.4 387.79 401.21" style="fill:#fff;isolation:isolate;opacity:0.2"></polygon></g><g id="freepik--Character--inject-3"><path d="M150.92,305.75H327.14a7.28,7.28,0,0,1,7,6.26l10,81.71H155.46l-10-81.71A5.43,5.43,0,0,1,150.92,305.75Z" style="fill:#263238"></path><path d="M150.92,305.75H327.14a7.28,7.28,0,0,1,7,6.26l10,81.71H155.46l-10-81.71A5.43,5.43,0,0,1,150.92,305.75Z" style="fill:#fff;isolation:isolate;opacity:0.6000000000000001"></path><path d="M174.54,393.72H155.46l-10-81.71a5.43,5.43,0,0,1,5.5-6.26h6.56a7.29,7.29,0,0,1,7,6.26Z" style="isolation:isolate;opacity:0.2"></path><polygon points="160.99 415.47 167.68 415.47 170.41 394.59 158.94 394.59 160.99 415.47" style="fill:#263238"></polygon><polygon points="190.34 415.47 197.03 415.47 199.76 394.59 188.3 394.59 190.34 415.47" style="fill:#263238"></polygon><polygon points="330.24 415.47 336.93 415.47 339.66 394.59 328.19 394.59 330.24 415.47" style="fill:#263238"></polygon><polygon points="359.59 415.47 366.28 415.47 369.01 394.59 357.55 394.59 359.59 415.47" style="fill:#263238"></polygon><polygon points="190.34 415.47 197.03 415.47 199.76 394.59 188.3 394.59 190.34 415.47" style="fill:#fff;isolation:isolate;opacity:0.2"></polygon><polygon points="359.59 415.47 366.28 415.47 369.01 394.59 357.55 394.59 359.59 415.47" style="fill:#fff;isolation:isolate;opacity:0.2"></polygon><path d="M156.08,393.27l.6,7.69a1.08,1.08,0,0,0,1.08,1H369.68a1.08,1.08,0,0,0,1.08-1l.6-7.69Z" style="fill:#263238"></path><path d="M185.1,393.27l.61,7.69a1.07,1.07,0,0,0,1.07,1h182.9a1.08,1.08,0,0,0,1.08-1l.6-7.69Z" style="fill:#fff;isolation:isolate;opacity:0.2"></path><path d="M181.17,375.53H328.89l2.74-31.32a12,12,0,0,1,12-11h40.1a5.05,5.05,0,0,1,5,5.49l-.63,7.21a5.05,5.05,0,0,1-4.39,4.57l-1.43.18A3.78,3.78,0,0,0,379,354.1l-3.46,39.52a5.57,5.57,0,0,1-5.56,5.09H181.17Z" style="fill:#263238"></path><path d="M181.17,375.53H328.89l2.74-31.32a12,12,0,0,1,12-11h40.1a5.05,5.05,0,0,1,5,5.49l-.63,7.21a5.05,5.05,0,0,1-4.39,4.57l-1.43.18A3.78,3.78,0,0,0,379,354.1l-3.46,39.52a5.57,5.57,0,0,1-5.56,5.09H181.17Z" style="fill:#fff;isolation:isolate;opacity:0.6000000000000001"></path><path d="M359.39,344.21a12,12,0,0,1,12-11H343.6a12,12,0,0,0-12,11l-2.74,31.32h27.76Z" style="isolation:isolate;opacity:0.2"></path><path d="M181.17,375.53H356.65l2.74-31.32a12,12,0,0,1,12-11H383.7a5.05,5.05,0,0,1,5,5.49l-.63,7.21a5.05,5.05,0,0,1-4.39,4.57l-1.43.18A3.78,3.78,0,0,0,379,354.1l-3.46,39.52a5.57,5.57,0,0,1-5.56,5.09H181.17Z" style="fill:#fff;isolation:isolate;opacity:0.1"></path><path d="M328.22,319.19a4.27,4.27,0,0,0-6-.56l-.05,0c-1.17,1-2.41,2.05-3.64,3s-2.46,2-3.7,3-2.49,1.91-3.73,2.78c-.81.55-1.61,1.08-2.4,1.55l-.14-.09a27.18,27.18,0,0,1-2.17-1.68c-1.47-1.23-3-2.56-4.43-3.93s-2.94-2.75-4.42-4.15L293.09,315h0a2.13,2.13,0,0,0-3.25,2.71c1.14,1.76,2.35,3.43,3.57,5.11s2.52,3.31,3.85,4.93,2.71,3.21,4.23,4.77c.77.78,1.56,1.55,2.48,2.33a14,14,0,0,0,1.59,1.18,7.72,7.72,0,0,0,1.17.63,5.26,5.26,0,0,0,2.4.49,3.19,3.19,0,0,0,1-.2l.26-.1a32.72,32.72,0,0,0,5-2.48c1.54-.9,3-1.86,4.39-2.85s2.77-2,4.1-3.1,2.61-2.13,3.91-3.35A4.29,4.29,0,0,0,328.22,319.19Z" style="fill:#ebb376"></path><path d="M328.22,319.19a4.27,4.27,0,0,0-6-.56l-.05,0c-1.17,1-2.41,2.05-3.64,3s-2.46,2-3.7,3-2.49,1.91-3.73,2.78c-.81.55-1.61,1.08-2.4,1.55l-.14-.09a27.18,27.18,0,0,1-2.17-1.68c-1.47-1.23-3-2.56-4.43-3.93s-2.94-2.75-4.42-4.15L293.09,315h0a2.13,2.13,0,0,0-3.25,2.71c1.14,1.76,2.35,3.43,3.57,5.11s2.52,3.31,3.85,4.93,2.71,3.21,4.23,4.77c.77.78,1.56,1.55,2.48,2.33a14,14,0,0,0,1.59,1.18,7.72,7.72,0,0,0,1.17.63,5.26,5.26,0,0,0,2.4.49,3.19,3.19,0,0,0,1-.2l.26-.1a32.72,32.72,0,0,0,5-2.48c1.54-.9,3-1.86,4.39-2.85s2.77-2,4.1-3.1,2.61-2.13,3.91-3.35A4.29,4.29,0,0,0,328.22,319.19Z" style="isolation:isolate;opacity:0.1"></path><path d="M323.79,330.19a5.46,5.46,0,0,1-1.07-.21,17,17,0,0,1-5.08-3,41.83,41.83,0,0,1-3.69-3.3s9.05-12.06,16.16-10.8C335.14,317.25,331,323.29,323.79,330.19Z" style="fill:#37896E"></path><path d="M325.68,323a11,11,0,0,1-3,7,17,17,0,0,1-5.08-3C320.39,322.37,325.68,323,325.68,323Z" style="isolation:isolate;opacity:0.2"></path><path d="M257.92,346.23c5.93-.34,33.61,2.22,33.61,2.22l9.41,1.25L303,350s-.47.6-1.15,1.55c-2,2.81-5.86,8.64-4.87,11.06,1.51,3.66,12.07,8.07,15,9.25l.77.3-.58.08c-12.34,1.75-36.3-6.44-47.95-10.66-3.85-1.4-6.36-2.36-6.66-2.4S256.57,346.31,257.92,346.23Z" style="fill:#ebb376"></path><polygon points="303.81 348.43 288.35 347.59 285.76 370.93 300.49 374.21 303.81 348.43" style="fill:#263238"></polygon><polygon points="286.29 347 290.21 347.08 286.29 371.19 282.71 369.83 286.29 347" style="fill:#37896E"></polygon><path d="M264.24,361.56c11.65,4.22,35.61,12.41,47.95,10.66l-.19-.38-10.15-20.31-1.78,2.63S280.69,353.54,264.24,361.56Z" style="isolation:isolate;opacity:0.1"></path><path d="M316.88,344a107.32,107.32,0,0,0-15.94,5.71,31.68,31.68,0,0,0-3.42,8.86c-1.44,8.91.05,19.76,11.74,20,17,.29,23-4.82,26.85-27.15Z" style="fill:#263238"></path><path d="M196.67,364.15c0,2.08,0,3.94.06,5.66,0,2.09,0,4,.06,5.77,0,3.17,3.58.45,9.09.09l.56,0h0c.08,0,.15-.13.18-.33a28.74,28.74,0,0,0,0-4.92h0a35.09,35.09,0,0,1-2.71-2.8c-1.56-1.77-3.29-4.14-3.82-6.27C199.08,357.19,196.62,359.52,196.67,364.15Z" style="fill:#ebb376"></path><path d="M205,370.38l.06,5.11.94.11.41,0c6.49.74,34.78,3.66,50,.56,0,0,47.48,1.87,56.09,1.89s13.39-11.66,9.24-18.65c-2.43-4.09-6.09-7.52-18.45-4.61s-38.72,10.34-48.54,11.61c0,0-13.75,2.95-36.73,3.75h0c-3.59.12-7.41.19-11.43.19Z" style="fill:#ebb376"></path><path d="M196.67,364.15c0,2.08,0,3.94.06,5.66,0,2.09,0,4,.06,5.77,0,3.17,3.58.45,9.09.09l.16-.07.59-.29c4.11-2,8.33-3.84,11.42-5.12-3.59.12-7.41.19-11.43.19a35.09,35.09,0,0,1-2.71-2.8c-1.56-1.77-3.29-4.14-3.82-6.27C199.08,357.19,196.62,359.52,196.67,364.15Z" style="isolation:isolate;opacity:0.1"></path><path d="M199.14,373.31c.54-.17,0-6,0-6s-7.51-2.44-9.61-6.13-3.83-.77-2.53,3.66,2.31,7.82,3.23,11S193.58,375.09,199.14,373.31Z" style="fill:#ebb376"></path><path d="M257.92,346.23c1.06-.06-.09,13-.34,12.93-1.39-.13-61.93,15-61.93,15l-1.73-4.81S252,346.56,257.92,346.23Z" style="fill:#ebb376"></path><path d="M313.47,351.9,291.72,357,296,378.87s23.23,2.33,28.75-3.26S325.05,353.32,313.47,351.9Z" style="fill:#263238"></path><polygon points="289.87 356.88 293.61 355.69 297.65 379.78 293.83 379.65 289.87 356.88" style="fill:#37896E"></polygon><path d="M347.28,319a.18.18,0,0,1-.15-.3c9.5-12.83,5.68-24.44,5.64-24.55a.19.19,0,0,1,.12-.24.18.18,0,0,1,.24.11c0,.12,3.92,11.92-5.7,24.91A.17.17,0,0,1,347.28,319Z" style="fill:#263238"></path><path d="M348.75,286.28C353,287.91,356,296.93,352,307.2a86.93,86.93,0,0,1-10.4,18.59l-13.14-4.57S333.22,280.26,348.75,286.28Z" style="fill:#263238"></path><path d="M353.56,325c-.23.88-.51,1.8-.85,2.74a57.6,57.6,0,0,1-3.42,7.55c-.56,1.08-1.16,2.15-1.78,3.21-.26.46-.53.92-.8,1.37l-.16.26v0a116.1,116.1,0,0,1-11,15.09L316.88,344s3.62-14,4.57-16.95a46.12,46.12,0,0,1,2.53-6.5c1.7-3.48,3.71-5.93,6-6.17.94-.09,1.94-.13,3-.14.43,0,.87,0,1.32,0h0a90.21,90.21,0,0,1,14,1.78l.64.13c2.55.52,4.22.94,4.22.94C354.43,319,354.39,321.79,353.56,325Z" style="fill:#37896E"></path><path d="M348.35,288.21s1.86-4.48-5.51-6.46-17,4.53-16.94,16.15,2.69,15.29-.87,21.17-1.17,8.11.84,9.49a3.07,3.07,0,0,1-.34-3.13c.88-1.5,6.44-1.28,7.35-7.24s7.84-5,7.84-5Z" style="fill:#263238"></path><path d="M345.5,317s-2.29,2.26-8.47,1.93c0,0-2.64-2.51-.93-4.67,0,0,1.38-.18,2-2.2a10.2,10.2,0,0,0,.23-4.44c0-.23-.06-.49-.1-.74l8.51-3.39S342.33,312.69,345.5,317Z" style="fill:#ebb376"></path><path d="M323,320.17a.32.32,0,0,1-.16,0,.19.19,0,0,1-.12-.24.18.18,0,0,1,.24-.11h0a.44.44,0,0,0,.35-.14c.65-.54,2.06-3.22,1.05-16.28C323,285.75,337.84,282.11,338,282.08a.18.18,0,1,1,.08.36c-.14,0-14.65,3.61-13.32,20.9,1,12.89-.35,16-1.23,16.63A.85.85,0,0,1,323,320.17Z" style="fill:#263238"></path><path d="M344.56,306s-1.41,5.39-6.42,6.11a10.2,10.2,0,0,0,.23-4.44C341.43,306.67,344.56,306,344.56,306Z" style="isolation:isolate;opacity:0.2"></path><path d="M340,286.65c-6.44-.07-8.55,3.35-9.09,10-.68,8.29,1.09,14.2,9.16,12.51C351,306.85,350.69,286.76,340,286.65Z" style="fill:#ebb376"></path><path d="M335.07,296.32a13.72,13.72,0,0,1-1.9,2.65,1.76,1.76,0,0,0,1.69.74Z" style="fill:#d58745"></path><path d="M339,295.83c0,.53.25,1,.6,1s.66-.41.68-.94-.26-1-.61-1S339,295.3,339,295.83Z" style="fill:#263238"></path><path d="M339.84,294.93l-1.14-.49S339.24,295.42,339.84,294.93Z" style="fill:#263238"></path><path d="M332.45,295.5c0,.53.25,1,.61,1s.65-.41.67-.94-.26-1-.61-1S332.47,295,332.45,295.5Z" style="fill:#263238"></path><path d="M333.27,294.59l-1.14-.49S332.67,295.09,333.27,294.59Z" style="fill:#263238"></path><path d="M341.91,292.66a.25.25,0,0,1-.21-.1,3.11,3.11,0,0,0-2.54-.9.28.28,0,0,1-.3-.24.28.28,0,0,1,.24-.31,3.62,3.62,0,0,1,3,1.11.28.28,0,0,1-.22.44Z" style="fill:#263238"></path><path d="M331.88,291.84a.29.29,0,0,1-.23-.13.27.27,0,0,1,.08-.37,3.27,3.27,0,0,1,2.82-.53.27.27,0,0,1-.19.51,2.75,2.75,0,0,0-2.33.47A.21.21,0,0,1,331.88,291.84Z" style="fill:#263238"></path><path d="M346.92,297.57s-3-5.32-2.46-9.4c0,0-12.7-5.35-13.47,7.59,0,0-1.12-11.51,9.95-11.64s10.85,16.05,5.08,20.81C346,304.93,348.74,300.9,346.92,297.57Z" style="fill:#263238"></path><path d="M345.85,298.92a2.83,2.83,0,0,1,3.07-2.55c2,.24,2.9,4.35-2.07,5.28C346.13,301.78,345.74,301.08,345.85,298.92Z" style="fill:#ebb376"></path><path d="M335.6,303.06a.2.2,0,0,1-.19-.17.2.2,0,0,1,.17-.21s2.8-.4,3.72-2.2a.19.19,0,0,1,.25-.08.18.18,0,0,1,.08.25c-1,2-3.88,2.39-4,2.41Z" style="fill:#263238"></path><path d="M289,306l2.3-1s2.44.33,3,2.37c0,0,9.82-3.14,13.58-2.37l1.05,2.77-1,8.44L292.58,313Z" style="fill:#e0e0e0"></path><path d="M310.57,306s-9.82-.38-16.7,2.17c0,0-1.18-2.44-5.65-2.42,0,0,4.73,20.16,4.81,20.06s3,.25,5.43,4.49a59.23,59.23,0,0,1,15.29-1.62Z" style="fill:#37896E"></path><path d="M310.57,306s-9.82-.38-16.7,2.17c0,0-1.18-2.44-5.65-2.42,0,0,4.73,20.16,4.81,20.06s3,.25,5.43,4.49a59.23,59.23,0,0,1,15.29-1.62Z" style="fill:#fff;opacity:0.8"></path><path d="M293.87,308.15s-1.18-2.44-5.65-2.42c0,0,4.73,20.16,4.81,20.06s3,.25,5.43,4.49Z" style="isolation:isolate;opacity:0.1"></path><path d="M308.55,317.56l2.08-.31a2.45,2.45,0,0,1,2.12.73l2.56,2.67a4.55,4.55,0,0,1,1.19,4l-.17.9c-3.42.74-7.66-1-7.66-1l-1.26-.36a2,2,0,0,1-1.48-2.49l.67-2.51A2.36,2.36,0,0,1,308.55,317.56Z" style="fill:#ebb376"></path><path d="M289,316.19c-.33-1.21-1.69-4.61.47-5.67l2.23,1.55V318S289.69,318.72,289,316.19Z" style="fill:#ebb376"></path><path d="M352.71,327.75a57.6,57.6,0,0,1-3.42,7.55c-.56,1.08-1.16,2.15-1.78,3.21-5,1.35-10.84.7-11.73-2.37-1.38-4.7,5.79-10.35,5.79-10.35C346.22,324.44,350.36,325.6,352.71,327.75Z" style="isolation:isolate;opacity:0.2"></path><path d="M351.05,331.68c-1.29,1.21-2.58,2.25-3.9,3.35s-2.69,2.1-4.1,3.09-2.85,2-4.4,2.85a32.15,32.15,0,0,1-5,2.48l-.26.1a3,3,0,0,1-1,.2,5.53,5.53,0,0,1-2.41-.48,10.69,10.69,0,0,1-1.16-.63,15.28,15.28,0,0,1-1.59-1.19c-.92-.78-1.71-1.55-2.48-2.33-1.52-1.55-2.89-3.16-4.23-4.76s-2.61-3.26-3.85-4.93-2.43-3.35-3.57-5.11a2.13,2.13,0,0,1,3.25-2.72h0l4.43,4.19c1.48,1.39,2.94,2.79,4.42,4.15s3,2.69,4.42,3.93c.74.61,1.48,1.2,2.17,1.67.35.23.68.44.93.57s.21.09.2.07a1.75,1.75,0,0,0-.93-.15l-1.29.3a34.45,34.45,0,0,0,3.64-2.25c1.24-.86,2.49-1.81,3.73-2.77s2.47-2,3.7-3,2.47-2.06,3.64-3l0,0a4.27,4.27,0,0,1,5.65,6.41Z" style="fill:#e9b376"></path><path d="M353.2,317.1c5.71,3.44,5.18,9.07-3.26,18.13-3.82.35-11.8-5-11.8-5S346,317.07,353.2,317.1Z" style="fill:#37896E"></path><path d="M131.53,333.24h44.22a12,12,0,0,1,12,11l2.74,31.32h3.14v23.18H145.23a5.58,5.58,0,0,1-5.56-5.09l-3.46-39.52a3.77,3.77,0,0,0-3.27-3.41l-1.42-.18a5.05,5.05,0,0,1-4.4-4.57l-.63-7.21A5.05,5.05,0,0,1,131.53,333.24Z" style="fill:#263238"></path><path d="M131.53,333.24h44.22a12,12,0,0,1,12,11l2.74,31.32h3.14v23.18H145.23a5.58,5.58,0,0,1-5.56-5.09l-3.46-39.52a3.77,3.77,0,0,0-3.27-3.41l-1.42-.18a5.05,5.05,0,0,1-4.4-4.57l-.63-7.21A5.05,5.05,0,0,1,131.53,333.24Z" style="fill:#fff;isolation:isolate;opacity:0.6000000000000001"></path><g style="isolation:isolate;opacity:0.2"><path d="M171.56,393.62l-3.45-39.52a3.79,3.79,0,0,0-3.28-3.41l-1.42-.18a5.05,5.05,0,0,1-4.4-4.57l-.63-7.21a5.06,5.06,0,0,1,5-5.49h-31.9a5.05,5.05,0,0,0-5,5.49l.63,7.21a5.05,5.05,0,0,0,4.4,4.57l1.42.18a3.77,3.77,0,0,1,3.27,3.41l3.46,39.52a5.58,5.58,0,0,0,5.56,5.09h31.89A5.59,5.59,0,0,1,171.56,393.62Z"></path></g><path d="M163.42,333.24h12.33a12,12,0,0,1,12,11l2.74,31.32h3.14v23.18H177.12a5.59,5.59,0,0,1-5.56-5.09l-3.45-39.52a3.79,3.79,0,0,0-3.28-3.41l-1.42-.18a5.05,5.05,0,0,1-4.4-4.57l-.63-7.21A5.06,5.06,0,0,1,163.42,333.24Z" style="fill:#fff;isolation:isolate;opacity:0.1"></path><path d="M328.89,375.53H181.17v23.18H370a5.57,5.57,0,0,0,5.56-5.09l1.58-18.09Z" style="fill:#263238"></path><path d="M328.89,375.53H181.17v23.18H370a5.57,5.57,0,0,0,5.56-5.09l1.58-18.09Z" style="fill:#fff;isolation:isolate;opacity:0.6000000000000001"></path><path d="M356.65,375.53H181.17v23.18H370a5.57,5.57,0,0,0,5.56-5.09l1.58-18.09Z" style="fill:#fff;isolation:isolate;opacity:0.1"></path></g><g id="freepik--Lamps--inject-3"><rect x="239.11" y="55.45" width="1.04" height="141.46" style="fill:#37896E"></rect><g style="isolation:isolate;opacity:0.2"><rect x="239.11" y="55.45" width="1.04" height="141.46"></rect></g><path d="M242.76,202.76v-4.43h-6.27v4.43a6,6,0,1,0,6.27,0Z" style="fill:#37896E"></path><path d="M242.76,202.76v-4.43h-6.27v4.43a6,6,0,1,0,6.27,0Z" style="fill:#fff;isolation:isolate;opacity:0.5"></path><rect x="224.26" y="194.55" width="30.72" height="4.71" style="fill:#37896E"></rect><rect x="224.26" y="194.55" width="30.72" height="4.71" style="isolation:isolate;opacity:0.2"></rect><rect x="219.11" y="55.45" width="1.04" height="126.78" style="fill:#37896E"></rect><path d="M222.77,188.08v-4.43h-6.28v4.43a6,6,0,1,0,6.28,0Z" style="fill:#37896E"></path><path d="M222.77,188.08v-4.43h-6.28v4.43a6,6,0,1,0,6.28,0Z" style="fill:#fff;isolation:isolate;opacity:0.7000000000000001"></path><rect x="204.27" y="179.87" width="30.72" height="4.71" style="fill:#37896E"></rect><path d="M262.5,172.85v-4.42h-6.28v4.42a6,6,0,1,0,6.28,0Z" style="fill:#37896E"></path><path d="M262.5,172.85v-4.42h-6.28v4.42a6,6,0,1,0,6.28,0Z" style="fill:#fff;isolation:isolate;opacity:0.7000000000000001"></path><rect x="258.84" y="55.45" width="1.04" height="111.55" style="fill:#37896E"></rect><g style="isolation:isolate;opacity:0.2"><rect x="258.84" y="55.45" width="1.04" height="111.55" style="fill:#fff"></rect></g><rect x="244" y="164.64" width="30.72" height="4.71" style="fill:#37896E"></rect><rect x="244" y="164.64" width="30.72" height="4.71" style="fill:#fff;isolation:isolate;opacity:0.2"></rect></g><g id="freepik--Shelf--inject-3"><rect x="112.36" y="209.68" width="5.11" height="205.79" style="fill:#37896E"></rect><rect x="112.36" y="209.68" width="5.11" height="205.79" style="fill:#fff;isolation:isolate;opacity:0.2"></rect><rect x="114.91" y="212.22" width="2.56" height="203.25" style="fill:#fff;isolation:isolate;opacity:0.30000000000000004"></rect><polygon points="141.6 415.47 136.48 415.47 116.47 209.68 121.59 209.68 141.6 415.47" style="fill:#37896E"></polygon><polygon points="141.6 415.47 136.48 415.47 116.47 209.68 121.59 209.68 141.6 415.47" style="fill:#fff;isolation:isolate;opacity:0.2"></polygon><polygon points="141.6 415.47 138.48 415.47 118.47 209.68 121.59 209.68 141.6 415.47" style="fill:#fff;isolation:isolate;opacity:0.30000000000000004"></polygon><rect x="84.11" y="351.99" width="14.75" height="14.75" style="fill:#37896E"></rect><rect x="84.11" y="351.99" width="4.62" height="14.75" style="isolation:isolate;opacity:0.2"></rect><polygon points="108.29 314.7 113.47 297.49 116.19 298.18 110.68 315.59 108.29 314.7" style="fill:#263238"></polygon><polygon points="96.82 305 89.39 306.79 87.22 314.11 92.48 319.65 99.91 317.87 102.08 310.55 96.82 305" style="fill:#263238"></polygon><path d="M105.53,314.9h0a1.8,1.8,0,0,1-1.79-1.79v-3.35a1.79,1.79,0,0,1,1.79-1.78h0a1.78,1.78,0,0,1,1.78,1.78v3.35A1.79,1.79,0,0,1,105.53,314.9Z" style="fill:#263238"></path><rect x="82.6" y="312.33" width="30.87" height="13.98" style="fill:#263238"></rect><rect x="82.6" y="312.33" width="30.87" height="13.98" style="fill:#fff;isolation:isolate;opacity:0.5"></rect><rect x="93.27" y="312.33" width="20.2" height="13.98" style="fill:#fff;isolation:isolate;opacity:0.5"></rect><polygon points="105.6 194.01 101.25 206.93 109.29 206.93 105.6 194.01" style="fill:#263238"></polygon><polygon points="120.77 206.93 105.6 206.93 101.25 185.83 116.41 185.83 120.77 206.93" style="fill:#37896E"></polygon><polygon points="107.19 204.91 103.67 187.85 114.83 187.85 118.35 204.91 107.19 204.91" style="fill:#fff;isolation:isolate;opacity:0.30000000000000004"></polygon><polygon points="103.94 272.2 108.29 285.11 100.25 285.11 103.94 272.2" style="fill:#263238"></polygon><polygon points="88.78 285.11 103.94 285.11 108.29 264.02 93.13 264.02 88.78 285.11" style="fill:#37896E"></polygon><polygon points="102.36 283.09 105.87 266.04 94.71 266.04 91.19 283.09 102.36 283.09" style="fill:#fff;isolation:isolate;opacity:0.30000000000000004"></polygon><rect x="68.88" y="243.24" width="69.71" height="4.48" style="fill:#263238"></rect><rect x="91.09" y="243.24" width="47.51" height="4.48" style="fill:#fff;isolation:isolate;opacity:0.30000000000000004"></rect><rect x="68.88" y="284.4" width="69.71" height="4.48" style="fill:#263238"></rect><rect x="91.09" y="284.4" width="47.51" height="4.48" style="fill:#fff;isolation:isolate;opacity:0.30000000000000004"></rect><rect x="68.88" y="325.57" width="69.71" height="4.48" style="fill:#263238"></rect><rect x="91.09" y="325.57" width="47.51" height="4.48" style="fill:#fff;isolation:isolate;opacity:0.30000000000000004"></rect><rect x="68.88" y="366.73" width="69.71" height="4.48" style="fill:#263238"></rect><rect x="91.09" y="366.73" width="47.51" height="4.48" style="fill:#fff;isolation:isolate;opacity:0.30000000000000004"></rect><rect x="68.88" y="209.68" width="5.11" height="205.79" style="fill:#37896E"></rect><rect x="68.88" y="209.68" width="5.11" height="205.79" style="fill:#fff;isolation:isolate;opacity:0.2"></rect><rect x="71.44" y="212.22" width="2.56" height="203.25" style="fill:#fff;isolation:isolate;opacity:0.30000000000000004"></rect><polygon points="98.13 415.47 93.01 415.47 73 209.68 78.12 209.68 98.13 415.47" style="fill:#37896E"></polygon><polygon points="98.13 415.47 93.01 415.47 73 209.68 78.12 209.68 98.13 415.47" style="fill:#fff;isolation:isolate;opacity:0.2"></polygon><polygon points="98.13 415.47 95.01 415.47 75 209.68 78.12 209.68 98.13 415.47" style="fill:#fff;isolation:isolate;opacity:0.30000000000000004"></polygon><rect x="68.88" y="206.22" width="69.71" height="4.48" style="fill:#263238"></rect><rect x="91.09" y="206.22" width="47.51" height="4.48" style="fill:#fff;isolation:isolate;opacity:0.30000000000000004"></rect><path d="M82.56,200a7.42,7.42,0,0,1,.2-6.1c1.61-3,2.08-3.74,1-4.36s-1.49,2.42-1.49,2.42a6.77,6.77,0,0,1-.15-4.28c.71-2.19,1.16-5.76.18-6.14s-.18,4.45-1,6.1a14.36,14.36,0,0,1-.83-3.6c-.11-1.76.07-4.56-.7-5.28s-1.26-.23-.51,3.65a40.21,40.21,0,0,1,.75,7s-1.67-5.09-2.79-5.24-1.12,1.5-.16,2.93,2.81,4,3.12,5.31c0,0-1.84-3.83-3.48-2.65s1.43,3.48,2.8,4.32,2.33,6.08,2.33,6.08Z" style="fill:#37896E"></path><path d="M82.56,200a7.42,7.42,0,0,1,.2-6.1c1.61-3,2.08-3.74,1-4.36s-1.49,2.42-1.49,2.42a6.77,6.77,0,0,1-.15-4.28c.71-2.19,1.16-5.76.18-6.14s-.18,4.45-1,6.1a14.36,14.36,0,0,1-.83-3.6c-.11-1.76.07-4.56-.7-5.28s-1.26-.23-.51,3.65a40.21,40.21,0,0,1,.75,7s-1.67-5.09-2.79-5.24-1.12,1.5-.16,2.93,2.81,4,3.12,5.31c0,0-1.84-3.83-3.48-2.65s1.43,3.48,2.8,4.32,2.33,6.08,2.33,6.08Z" style="isolation:isolate;opacity:0.2"></path><path d="M81.45,201.21a7.43,7.43,0,0,0-.27-6.09c-1.65-3-2.12-3.71-1.1-4.34s1.52,2.4,1.52,2.4a6.85,6.85,0,0,0,.1-4.29c-.74-2.18-1.23-5.74-.26-6.13s.24,4.44,1.1,6.08a14.37,14.37,0,0,0,.79-3.61c.09-1.76-.12-4.56.64-5.29s1.26-.25.55,3.65a40.77,40.77,0,0,0-.67,7s1.61-5.11,2.73-5.28,1.14,1.49.19,2.93-2.76,4-3,5.36c0,0,1.78-3.86,3.44-2.71s-1.39,3.51-2.75,4.36-2.26,6.12-2.26,6.12Z" style="fill:#37896E"></path><polygon points="87.77 199.01 76.45 199.01 77.37 207.11 86.86 207.11 87.77 199.01" style="fill:#263238"></polygon><g style="isolation:isolate;opacity:0.30000000000000004"><polygon points="87.77 199.01 76.45 199.01 77.37 207.11 86.86 207.11 87.77 199.01" style="fill:#fff"></polygon></g><path d="M108.79,239.64v3.1h.5v.5H86.12a2.05,2.05,0,1,1,0-4.1h23.17v.5Z" style="fill:#37896E"></path><path d="M108.79,239.64v3.1h.5v.5H97.59a2.05,2.05,0,1,1,0-4.1h11.7v.5Z" style="fill:#fff;isolation:isolate;opacity:0.30000000000000004"></path><path d="M108.79,239.64v3.1H97.59A1.56,1.56,0,0,1,96,241.19a1.54,1.54,0,0,1,1.55-1.55Z" style="fill:#fff;isolation:isolate;opacity:0.7000000000000001"></path><path d="M111.28,235.54v3.1h.5v.5H88.61a2.05,2.05,0,1,1,0-4.1h23.17v.5Z" style="fill:#263238"></path><path d="M111.28,235.54v3.1h.5v.5h-11.7a2.05,2.05,0,1,1,0-4.1h11.7v.5Z" style="fill:#fff;isolation:isolate;opacity:0.30000000000000004"></path><path d="M111.28,235.54v3.1h-11.2a1.56,1.56,0,0,1-1.55-1.55,1.54,1.54,0,0,1,1.55-1.55Z" style="fill:#fff;isolation:isolate;opacity:0.7000000000000001"></path><path d="M108.15,231.44v3.1h.5v.5H85.48a2.05,2.05,0,1,1,0-4.1h23.17v.5Z" style="fill:#37896E"></path><path d="M108.15,231.44v3.1h.5v.5H97a2.05,2.05,0,1,1,0-4.1h11.7v.5Z" style="fill:#fff;isolation:isolate;opacity:0.30000000000000004"></path><path d="M108.15,231.44v3.1H97A1.56,1.56,0,0,1,95.4,233,1.54,1.54,0,0,1,97,231.44Z" style="fill:#fff;isolation:isolate;opacity:0.7000000000000001"></path><rect x="107.25" y="345.56" width="10.16" height="17.65" rx="5.08" style="fill:#263238"></rect><rect x="111.09" y="358.65" width="2.46" height="8.09" style="fill:#263238"></rect><rect x="108.48" y="365.97" width="7.69" height="0.76" style="fill:#263238"></rect><rect x="107.25" y="345.56" width="10.16" height="17.65" rx="5.08" style="fill:#fff;isolation:isolate;opacity:0.30000000000000004"></rect></g></svg>
