<svg width="393" height="473" viewBox="0 0 393 473" fill="none" xmlns="http://www.w3.org/2000/svg">
<path d="M224.982 49.573C248.514 57.0312 268.756 71.4998 287.288 87.003C357.332 145.599 409.368 222.894 435.646 307.376C453.708 365.447 457.874 433.391 418.588 481.38C397.708 506.884 366.558 523.776 333.77 533.216C300.984 542.653 266.406 545.165 232.122 546.115C177.45 547.631 122.658 545.321 68.352 539.211C45.898 536.684 22.778 533.259 3.67001 521.918C-13.212 511.899 -25.678 496.355 -34.708 479.648C-58.734 435.196 -59.866 382.24 -47.83 333.702C-35.794 285.163 -11.522 240.144 13.714 196.287C36.788 156.187 61.602 115.721 98.55 86.115C135.496 56.509 187.308 39.3451 233.65 53.0918" fill="#69C9BA"/>
<path d="M220.402 95.406C238.38 101.485 253.846 113.278 268.006 125.916C321.52 173.675 361.278 236.678 381.354 305.537C395.154 352.87 398.336 408.251 368.322 447.365C352.37 468.153 328.57 481.921 303.522 489.614C278.472 497.307 252.054 499.353 225.862 500.13C184.092 501.366 142.23 499.482 100.738 494.502C83.582 492.443 65.918 489.65 51.32 480.407C38.422 472.241 28.896 459.572 21.998 445.954C3.64197 409.723 2.77799 366.557 11.974 326.994C21.17 287.432 39.714 250.738 58.994 214.99C76.624 182.305 95.582 149.321 123.81 125.19C152.038 101.059 191.622 87.0676 227.028 98.2735" fill="#4BA598"/>
<path d="M249.094 448.315H141.25V494.18H249.094V448.315Z" fill="#193046"/>
<path d="M85.622 295.968C75.562 305.895 66.774 322.138 60.646 334.766C59.34 337.459 58.118 340.246 57.74 343.206C56.846 350.206 60.934 361.942 72.802 363.988V407.187C56.346 402.027 41.388 393.831 28.494 382.578C15.6 371.325 6.56 354.809 8.014 337.966C8.852 328.248 13.026 319.133 17.442 310.39C25.682 294.073 35.09 278.12 47.684 264.723L71.09 284.164L85.622 295.968Z" fill="#F7C5B4"/>
<path d="M310.938 470.997H80.738C76.374 470.997 72.802 467.504 72.802 463.236V320.647C72.802 316.379 76.372 312.886 80.738 312.886H310.938C315.302 312.886 318.874 316.377 318.874 320.647V463.236C318.872 467.504 315.302 470.997 310.938 470.997Z" fill="#BEC6C3"/>
<path d="M134.116 543.811C173.562 506.115 238.166 463.289 284.302 433.737C298.536 424.618 312.878 415.445 328.604 409.09C342.992 403.274 356.768 394.343 372.25 395.936C391.684 397.933 404.424 419.417 401.982 438.379C399.542 457.34 385.82 473.19 370.33 484.838C350.858 499.478 328.046 509.229 305.056 517.683C261.658 533.642 191.412 553.094 145.694 560.637L134.116 543.811Z" fill="#1F3A54"/>
<path d="M258.58 538.383C218.544 501.286 153.272 459.441 106.676 430.588C92.298 421.686 77.816 412.73 61.99 406.611C47.512 401.013 33.596 392.292 18.142 394.117C-1.258 396.407 -13.658 418.081 -10.918 437.004C-8.178 455.926 5.78999 471.566 21.464 482.98C41.164 497.325 64.128 506.731 87.25 514.837C130.894 530.139 201.438 548.529 247.27 555.381L258.58 538.383Z" fill="#1F3A54"/>
<path d="M287.066 312.888L295.034 292.315C297.336 294.053 301.996 296.858 303.74 299.135C318.618 284.387 339.552 270.028 354.43 255.28C272.56 141.057 136.37 174.755 103.416 195.172C77.602 211.164 54.56 231.825 37.246 255.28C52.124 270.028 73.058 284.387 87.936 299.135C89.68 296.858 94.338 294.052 96.642 292.315L104.612 312.888" fill="#6AA253"/>
<path d="M218.406 132.466C219.486 140.905 220.568 149.341 221.648 157.779C222.044 160.875 222.504 166.155 223.992 168.914C226.372 173.333 247.798 179.635 251.666 181.748C251.666 181.748 234.502 195.835 194.668 197.378C154.834 198.921 141.252 180.783 141.252 180.783C145.12 178.671 165.07 171.803 167.45 167.385C168.938 164.625 169.396 159.346 169.794 156.249C170.876 147.811 171.956 139.373 173.036 130.937" fill="#F7C5B4"/>
<path d="M240.274 46.1031C243.646 63.9594 238.848 99.8931 234.93 114.094C233.338 119.866 231.626 125.832 227.826 130.514C209.048 153.646 184.018 146.334 175.79 141.045C169.334 136.895 164.194 131.197 161.218 124.224C153.622 106.43 150.506 86.827 152.22 67.6191C152.22 67.6191 150.036 17.4927 202.458 17.4927C202.458 17.4927 234.644 16.2838 240.274 46.1031Z" fill="#F7C5B4"/>
<path d="M153.18 91.2476C152.054 92.8417 149.444 92.7948 147.894 91.5879C146.344 90.383 145.652 88.4113 145.272 86.5101C144.902 84.65 144.756 82.7468 144.842 80.8534C144.902 79.4959 145.118 78.0563 146.022 77.0255C146.924 75.9986 148.468 75.5585 149.792 75.9536C151.116 76.3487 152.148 77.5556 152.31 78.8993L153.18 91.2476Z" fill="#F7C5B4"/>
<path d="M240.27 76.7399C240.7 75.4529 241.462 74.1893 242.788 73.7942C244.112 73.3991 245.656 73.8392 246.558 74.8661C247.462 75.8969 247.678 77.3365 247.74 78.694C247.826 80.5874 247.68 82.4906 247.31 84.3507C246.932 86.2519 246.24 88.2236 244.688 89.4285C243.138 90.6334 240.528 90.6803 239.402 89.0862C239.402 89.0862 238.256 82.7624 240.27 76.7399Z" fill="#F7C5B4"/>
<path d="M167.606 37.6492C169.664 44.3212 169.264 51.5955 167.09 58.2303C164.916 64.867 161.028 70.8876 156.312 76.1101C155.006 77.5556 152.988 79.0636 151.264 78.1248C150.412 77.6612 149.964 76.7243 149.606 75.8363C145.292 65.0939 146.596 52.3545 153.002 42.6625C152.93 34.5705 155.276 25.7568 160.932 19.8497C166.588 13.9425 174.616 10.2692 182.876 9.80755C185.946 9.63738 189.074 9.88578 192.064 9.17771C195.176 8.4403 197.928 6.71705 200.758 5.25201C205.226 2.94002 210.066 1.22071 215.09 0.667157C222.442 -0.142627 230.086 1.65884 236.182 5.75862C242.278 9.8584 246.754 16.2389 248.346 23.3039C249.248 27.3098 249.246 31.4683 248.81 35.5485C248.36 39.7657 247.418 44.0278 245.174 47.6561C242.396 52.151 237.718 55.3921 232.572 56.8904C226.688 58.6019 220.158 58.0816 214.634 55.4626C210.754 53.622 207.298 50.7721 203.084 49.8762C200.682 49.3657 198.192 49.53 195.732 49.5046C187.676 49.4146 179.654 47.1828 172.756 43.1104C170.59 41.8312 168.382 40.1647 167.796 37.7568" fill="#3C3C3B"/>
<path d="M219.132 138.902C219.132 138.902 212.206 145.409 197.558 146.571C182.91 147.735 173.506 139.52 171.998 138.143C171.998 138.143 175.012 153.937 196.134 154.086C216.51 154.233 219.132 138.902 219.132 138.902Z" fill="#F7C5B4"/>
<path d="M162.414 79.3922C162.414 79.3922 163.798 78.8935 166.028 78.4358C168.234 77.9604 171.25 77.6651 174.27 77.7472C177.288 77.8665 180.28 78.3634 182.446 78.9932C184.622 79.5957 185.994 80.202 185.994 80.202C186.256 80.3174 186.374 80.6186 186.258 80.8749C186.154 81.1057 185.894 81.2211 185.652 81.1605C185.652 81.1605 185.298 81.0705 184.68 80.916C184.066 80.7478 183.176 80.5522 182.112 80.3292C179.982 79.8871 177.106 79.4646 174.21 79.3707C171.316 79.2436 168.414 79.4431 166.252 79.7248C165.164 79.8656 164.29 79.9927 163.646 80.1179C163.008 80.2314 162.644 80.2939 162.644 80.2939C162.384 80.3389 162.138 80.1707 162.09 79.9184C162.048 79.6915 162.18 79.4744 162.394 79.3981L162.414 79.3922Z" fill="#3C3C3B"/>
<path d="M178.33 82.9365C178.33 85.1898 176.462 87.0167 174.158 87.0167C171.854 87.0167 169.986 85.1898 169.986 82.9365C169.986 80.6832 171.854 78.8563 174.158 78.8563C176.462 78.8563 178.33 80.6832 178.33 82.9365Z" fill="#3C3C3B"/>
<path d="M229.008 79.8206C229.008 79.8206 228.642 79.7698 228 79.6798C227.352 79.5761 226.474 79.4802 225.38 79.3785C223.21 79.1712 220.3 79.0734 217.412 79.3023C214.52 79.4998 211.662 80.0221 209.548 80.5384C208.492 80.7986 207.61 81.0255 207.002 81.2152C206.388 81.3932 206.038 81.4949 206.038 81.4949C205.762 81.5751 205.472 81.4206 205.39 81.1507C205.318 80.9101 205.438 80.6558 205.66 80.5482C205.66 80.5482 207.01 79.893 209.162 79.2142C211.306 78.5101 214.278 77.9076 217.29 77.6827C220.306 77.4949 223.332 77.6847 225.554 78.0817C227.8 78.4612 229.202 78.9111 229.202 78.9111L229.222 78.9169C229.472 78.9971 229.608 79.2612 229.526 79.5057C229.456 79.7228 229.234 79.8519 229.008 79.8206Z" fill="#3C3C3B"/>
<path d="M213.328 82.872C213.328 85.1253 215.196 86.9522 217.5 86.9522C219.804 86.9522 221.672 85.1253 221.672 82.872C221.672 80.6187 219.804 78.7917 217.5 78.7917C215.196 78.7917 213.328 80.6187 213.328 82.872Z" fill="#3C3C3B"/>
<path d="M188.682 74.6255C189.442 72.0651 189.16 69.2034 187.776 66.9051C187.364 67.7266 186.142 68.024 185.384 67.488C185.066 67.2631 184.824 66.9227 184.452 66.7995C184.152 66.7017 183.826 66.7662 183.512 66.7995C182.126 66.9442 180.766 66.4494 179.414 66.1168C173.498 64.6655 166.85 66.5374 162.628 70.8425C164.09 71.9281 166.142 71.4782 167.97 71.3178C175.096 70.6978 180.716 75.4391 187.858 75.0206C187.858 75.0206 188.574 74.9873 188.682 74.6255Z" fill="#3C3C3B"/>
<path d="M204.568 74.3262C203.87 71.7482 204.222 68.8944 205.66 66.6293C206.052 67.4587 207.266 67.7853 208.038 67.2689C208.362 67.0518 208.612 66.7154 208.986 66.6039C209.288 66.512 209.612 66.5844 209.926 66.6254C211.308 66.8034 212.68 66.3398 214.04 66.0386C219.99 64.7261 226.59 66.7506 230.706 71.1516C229.218 72.2039 227.178 71.7051 225.352 71.5037C218.242 70.7174 212.51 75.3257 205.38 74.7428C205.38 74.7428 204.666 74.69 204.568 74.3262Z" fill="#3C3C3B"/>
<path d="M197.532 115.586C197.532 115.586 197.296 115.674 196.832 115.803C196.358 115.932 195.698 116.099 194.87 116.161C193.228 116.314 190.954 116.036 188.952 115.031C187.974 114.536 187.048 113.863 186.306 113.163C185.548 112.46 184.984 111.678 184.546 110.991C184.112 110.301 183.864 109.665 183.7 109.225C183.538 108.783 183.466 108.525 183.466 108.525L183.462 108.507C183.4 108.286 183.534 108.059 183.76 107.999C183.97 107.942 184.19 108.054 184.266 108.249C184.266 108.249 184.634 109.184 185.51 110.377C185.938 110.978 186.524 111.613 187.2 112.233C187.89 112.857 188.682 113.399 189.572 113.849C191.314 114.768 193.33 115.089 194.824 115.093C195.57 115.087 196.212 115.042 196.634 114.974C197.068 114.911 197.336 114.851 197.336 114.851C197.544 114.804 197.752 114.929 197.802 115.134C197.846 115.322 197.74 115.51 197.562 115.574L197.532 115.586Z" fill="#DA806C"/>
<path d="M235.85 51.3764C234.698 59.2611 236.182 67.4919 240.024 74.514C240.474 75.3374 241.082 76.2313 242.026 76.3643C242.83 76.4758 243.618 75.9575 244.05 75.2846C244.482 74.6117 244.636 73.8078 244.78 73.0254C246.264 64.9569 247.69 56.3251 244.33 48.8141C244.082 48.2605 243.796 47.6992 243.322 47.3099C242.776 46.862 242.036 46.6938 241.322 46.6801C238.376 46.6214 235.674 49.2992 235.774 52.1803" fill="#3C3C3B"/>
<path d="M193.67 83.0617C193.67 83.0617 193.454 84.5835 193.128 86.8661C192.838 89.1429 192.512 92.1825 192.422 95.2319C192.356 96.7557 192.322 98.2794 192.352 99.7112C192.368 100.458 192.372 100.985 192.566 101.401C192.712 101.738 193.084 102.105 193.48 102.322C194.282 102.77 195.212 102.872 195.862 102.907C196.538 102.939 196.924 102.956 196.924 102.956C197.276 102.972 197.548 103.265 197.53 103.609C197.516 103.911 197.286 104.151 196.992 104.196L196.974 104.198C196.974 104.198 196.586 104.257 195.862 104.304C195.152 104.316 194.01 104.435 192.674 103.811C192.028 103.49 191.354 103.025 190.882 102.164C190.45 101.378 190.412 100.454 190.396 99.762C190.342 98.2911 190.324 96.7185 190.388 95.1478C190.544 92.0084 190.988 88.8906 191.512 86.5942C192.02 84.2901 192.53 82.8113 192.53 82.8113L192.534 82.7976C192.638 82.4984 192.968 82.338 193.274 82.4397C193.548 82.5316 193.708 82.7957 193.67 83.0617Z" fill="#DA806C"/>
<path d="M310.924 292.416C320.984 302.343 328.962 317.766 335.088 330.394C336.396 333.087 337.616 335.875 337.994 338.834C338.888 345.835 331.802 355.059 318.872 360.761V408.708C335.328 403.548 354.346 389.459 367.24 378.206C380.134 366.954 389.174 350.437 387.72 333.594C386.882 323.877 382.706 314.762 378.292 306.016C370.052 289.699 361.588 273.825 348.994 260.428L324.644 279.788L310.924 292.416Z" fill="#F7C5B4"/>
</svg>
