<svg width="108" height="108" viewBox="0 0 108 108" fill="none" xmlns="http://www.w3.org/2000/svg">
<rect width="108" height="108" fill="#FAFAFA"/>
<path d="M59.12 27L65.6 27.32L73.2 27C73.9467 27 74.32 27.8 74.32 29.4L68.96 31.16L55.68 54.44C57.28 55.1333 58.7733 56.68 60.16 59.08L71.76 78.84L78.16 80.6C78.16 82.2 77.76 83 76.96 83H66.48L53.6 59.4C52.8 57.8533 52 56.76 51.2 56.12L43.36 57.08L42.64 78.84L50.72 80.6C50.72 82.2 50.32 83 49.52 83C47.76 83 44.4 82.8933 39.44 82.68L31.2 83C30.4 83 30 82.2 30 80.6L36.72 78.84V31.16L30 29.4C30 27.8 30.4 27 31.2 27C31.68 27 34.4267 27.1067 39.44 27.32L47.84 27C48.64 27 49.04 27.8 49.04 29.4L42.64 31.16L43.36 53.24H52.48L63.68 31L57.92 29.4C57.92 27.8 58.32 27 59.12 27Z" fill="#102820"/>
</svg>
