<svg width="108" height="108" viewBox="0 0 108 108" fill="none" xmlns="http://www.w3.org/2000/svg">
<rect width="108" height="108" fill="#102820"/>
<path d="M57.872 37.4L61.76 37.592L66.32 37.4C66.768 37.4 66.992 37.88 66.992 38.84L63.776 39.896L55.808 53.864C56.768 54.28 57.664 55.208 58.496 56.648L65.456 68.504L69.296 69.56C69.296 70.52 69.056 71 68.576 71H62.288L54.56 56.84C54.08 55.912 53.6 55.256 53.12 54.872L48.416 55.448L47.984 68.504L52.832 69.56C52.832 70.52 52.592 71 52.112 71C51.056 71 49.04 70.936 46.064 70.808L41.12 71C40.64 71 40.4 70.52 40.4 69.56L44.432 68.504V39.896L40.4 38.84C40.4 37.88 40.64 37.4 41.12 37.4C41.408 37.4 43.056 37.464 46.064 37.592L51.104 37.4C51.584 37.4 51.824 37.88 51.824 38.84L47.984 39.896L48.416 53.144H53.888L60.608 39.8L57.152 38.84C57.152 37.88 57.392 37.4 57.872 37.4Z" fill="#FAFAFA"/>
</svg>
